<?xml version="1.0" encoding="UTF-8"?>
<svg xmlns="http://www.w3.org/2000/svg" version="1.1" viewBox="0 0 2842 1136">
  <rect x="0" width="2842" height="1136" fill="#777ab5"/>
  <g>
    <path fill="#fff" d="M1488.11,686.1v-62.47h32.1c.52.06,1.04.09,1.57.09s1.04.03,1.57.09c4.29.17,8.31.99,12.05,2.44,3.74,1.45,6.19,4.64,7.35,9.57.99,4.47.71,8.22-.83,11.27-1.54,3.04-4.19,5.67-7.96,7.87,4.18,1.97,6.96,4.52,8.35,7.66,1.39,3.13,1.59,7.02.61,11.66-1.04,4.76-3.41,7.9-7.09,9.44-3.68,1.54-7.61,2.34-11.79,2.39h-35.93ZM1501.25,649.3h19.23c2.49.06,4.55-.42,6.18-1.44,1.62-1.01,2.44-2.92,2.44-5.7.06-2.73-.75-4.61-2.44-5.66-1.68-1.04-3.74-1.57-6.18-1.57l-19.23-.09v14.44ZM1526.87,673.61c1.59-1.07,2.39-3,2.39-5.79s-.8-4.79-2.39-5.83c-1.6-1.04-3.67-1.57-6.22-1.57l-19.4-.09v14.7h19.4c2.55.12,4.62-.36,6.22-1.44Z"/>
    <path fill="#fff" d="M1572.24,676h9.74v-35.76h12.09v44.63c0,5.86-1.36,10.28-4.09,13.27-2.73,2.99-7.11,4.48-13.14,4.48h-23.75v-9.31h21.66c2.44-.06,4.26-.67,5.48-1.83s1.8-2.96,1.74-5.39h-10.7c-6.21,0-10.93-1.25-14.18-3.74-3.25-2.49-4.87-7.08-4.87-13.75v-28.36h12.01v27.32c0,3.36.51,5.63,1.52,6.79,1.01,1.16,3.18,1.74,6.48,1.74v-.09Z"/>
    <path fill="#fff" d="M1659.15,623.63l15.92,47.94,15.92-47.94h19.23v62.47h-12.88l1.04-48.63-16.01,48.63h-13.92l-16.53-49.16,1.3,49.16h-13.4v-62.47h19.31Z"/>
    <path fill="#fff" d="M1747.63,640.25c2.67.06,5.23.36,7.7.91,2.46.55,4.68,1.81,6.66,3.78,1.68,1.62,2.86,3.54,3.52,5.74.67,2.21,1,4.47,1,6.79v28.62h-32.54c-4.7,0-8.29-1.29-10.79-3.87-2.5-2.58-3.63-6.16-3.39-10.75.41-5.51,2.35-9.08,5.83-10.7,3.48-1.62,7.63-2.44,12.44-2.44l15.92-.09c.17-3.77-.8-6.12-2.92-7.05s-4.8-1.39-8.05-1.39l-20.18-.09v-9.48h24.79ZM1738.93,676.88h15.14v-9.48h-14.27c-.12.06-.23.09-.35.09h-.35c-1.62.06-3.13.36-4.52.91-1.39.55-2.12,1.84-2.17,3.87-.12,2.26.51,3.6,1.87,4,1.36.41,2.92.64,4.66.7v-.09Z"/>
    <path fill="#fff" d="M1797.48,640.25c6.55.06,10.35,1.57,11.4,4.52s1.54,6.93,1.48,11.92v2.87l-11.57-.09v-1.91c0-4.23-.33-6.7-1-7.39-.67-.7-3.09-1.04-7.26-1.04h-1.3v36.97h-12.09v-45.85h20.36Z"/>
    <path fill="#fff" d="M1842.98,676.27h12.88v9.83h-16.44c-3.13,0-6.19-.33-9.18-1-2.99-.67-5.67-2.13-8.05-4.39-1.97-1.91-3.51-4.16-4.61-6.74-1.1-2.58-1.8-5.23-2.09-7.96,0-.41-.02-.83-.04-1.26-.03-.44-.04-.86-.04-1.26,0-.52.01-1.04.04-1.57.03-.52.07-1.04.13-1.57.23-2.67.9-5.28,2-7.83,1.1-2.55,2.64-4.79,4.61-6.7,2.38-2.26,5.06-3.74,8.05-4.44,2.99-.7,6.05-1.04,9.18-1.04l16.44-.09v9.92h-12.88c-.17.06-.36.09-.57.09h-2.48c-1.16,0-2.29.09-3.39.26-1.1.17-2.15.55-3.13,1.13-2.15,1.28-3.58,2.99-4.31,5.13-.73,2.15-1.09,4.38-1.09,6.7.06,2.26.46,4.42,1.22,6.48.75,2.06,2.14,3.7,4.18,4.92.99.58,2.03.96,3.13,1.13,1.1.17,2.23.29,3.39.35h3.05v-.09Z"/>
    <path fill="#fff" d="M1902.66,680.62c-2.21,2.21-4.86,3.83-7.96,4.87-3.1,1.04-6.31,1.57-9.61,1.57s-6.5-.52-9.57-1.57c-3.08-1.04-5.71-2.64-7.92-4.78-2.26-2.2-3.96-4.84-5.09-7.92-1.13-3.07-1.7-6.23-1.7-9.48s.57-6.41,1.7-9.48c1.13-3.07,2.83-5.71,5.09-7.92,2.2-2.14,4.86-3.75,7.96-4.83,3.1-1.07,6.31-1.61,9.61-1.61s6.42.54,9.53,1.61c3.1,1.07,5.76,2.68,7.96,4.83,2.26,2.21,3.96,4.84,5.09,7.92,1.13,3.08,1.7,6.24,1.7,9.48s-.57,6.41-1.7,9.48-2.83,5.71-5.09,7.92v-.09ZM1881,676.35c.4.17.8.32,1.17.44.38.12.74.2,1.09.26,2.78.41,5.39-.12,7.83-1.57,2.44-1.45,4.06-3.57,4.87-6.35.29-.99.51-2.04.65-3.18.14-1.13.22-2.28.22-3.44-.12-2.55-.73-4.97-1.83-7.26-1.1-2.29-2.87-3.96-5.31-5-.52-.23-1.07-.41-1.65-.52-.58-.12-1.13-.2-1.65-.26-2.67-.23-5.16.38-7.48,1.83-2.32,1.45-3.89,3.48-4.7,6.09-.29.99-.51,2.02-.65,3.09-.15,1.07-.19,2.13-.13,3.17.06,2.73.68,5.29,1.87,7.7,1.19,2.41,3.09,4.1,5.7,5.09v-.09Z"/>
    <path fill="#fff" d="M1941.63,676.53c.12.06.23.09.35.09h.35c1.45-.06,2.78-.38,4-.96,1.22-.58,1.83-1.77,1.83-3.57,0-1.68-.58-2.81-1.74-3.39-1.16-.58-2.41-.93-3.74-1.04h-1.04l-10.44-.09c-4.87.06-8.71-.61-11.53-2-2.81-1.39-4.25-4.93-4.31-10.61-.06-5.33,1.39-9.1,4.35-11.31,2.96-2.2,6.9-3.31,11.83-3.31l26.01-.09v9.57h-21.4c-.17.06-.33.09-.48.09h-2.92c-1.04.06-2.04.29-3,.7-.96.41-1.58,1.16-1.87,2.26-.46,2.03-.06,3.42,1.22,4.18,1.27.75,2.75,1.13,4.44,1.13l10.96-.09c4.29.06,7.89,1.06,10.79,3,2.9,1.94,4.44,5.29,4.61,10.05v.26c.06,3.71-1,7.09-3.18,10.14s-5.29,4.57-9.35,4.57h-31.23v-9.57h25.49Z"/>
    <path fill="#fff" d="M2031.94,623.63c.06.06.13.09.22.09h3.52c1.1,0,2.2.06,3.31.17,1.97.12,3.93.39,5.87.83,1.94.44,3.75,1.15,5.44,2.13,3.07,1.8,5.26,4.26,6.57,7.4,1.3,3.13,1.99,6.41,2.04,9.83.06,3.13-.48,6.15-1.61,9.05-1.13,2.9-3,5.31-5.61,7.22-2.2,1.57-4.6,2.6-7.18,3.09-2.58.49-5.21.8-7.87.91h-4.18l-15.92-.09v21.84h-13.14v-62.47h28.54ZM2031.77,634.77h-15.22v18.44h16.01c3.19,0,5.94-.62,8.26-1.87,2.32-1.25,3.48-3.67,3.48-7.26.12-4-1.12-6.54-3.7-7.61-2.58-1.07-5.52-1.61-8.83-1.61v-.09Z"/>
    <path fill="#fff" d="M2105.54,680.62c-2.21,2.21-4.86,3.83-7.96,4.87-3.1,1.04-6.31,1.57-9.61,1.57s-6.5-.52-9.57-1.57c-3.08-1.04-5.71-2.64-7.92-4.78-2.26-2.2-3.96-4.84-5.09-7.92-1.13-3.07-1.7-6.23-1.7-9.48s.57-6.41,1.7-9.48c1.13-3.07,2.83-5.71,5.09-7.92,2.2-2.14,4.86-3.75,7.96-4.83,3.1-1.07,6.31-1.61,9.61-1.61s6.42.54,9.53,1.61c3.1,1.07,5.76,2.68,7.96,4.83,2.26,2.21,3.96,4.84,5.09,7.92,1.13,3.08,1.7,6.24,1.7,9.48s-.57,6.41-1.7,9.48-2.83,5.71-5.09,7.92v-.09ZM2083.88,676.35c.4.17.8.32,1.17.44.38.12.74.2,1.09.26,2.78.41,5.39-.12,7.83-1.57,2.44-1.45,4.06-3.57,4.87-6.35.29-.99.51-2.04.65-3.18.14-1.13.22-2.28.22-3.44-.12-2.55-.73-4.97-1.83-7.26-1.1-2.29-2.87-3.96-5.31-5-.52-.23-1.07-.41-1.65-.52-.58-.12-1.13-.2-1.65-.26-2.67-.23-5.16.38-7.48,1.83-2.32,1.45-3.89,3.48-4.7,6.09-.29.99-.51,2.02-.65,3.09-.15,1.07-.19,2.13-.13,3.17.06,2.73.68,5.29,1.87,7.7,1.19,2.41,3.09,4.1,5.7,5.09v-.09Z"/>
    <path fill="#fff" d="M2140.08,640.25c6.55.06,10.35,1.57,11.4,4.52s1.54,6.93,1.48,11.92v2.87l-11.57-.09v-1.91c0-4.23-.33-6.7-1-7.39-.67-.7-3.09-1.04-7.26-1.04h-1.3v36.97h-12.09v-45.85h20.36Z"/>
    <path fill="#fff" d="M2164.61,640.25v-16.62h12.09v16.62h12.79v9.13h-12.79v18.53c-.06,4.58.99,7.25,3.13,8,2.14.75,5.1,1.13,8.87,1.13h.78v9.05h-11.05c-4.58,0-8.03-1.28-10.35-3.83-2.32-2.55-3.48-6.03-3.48-10.44v-22.45h-8.53v-9.13h8.53Z"/>
    <path fill="#fff" d="M2235.43,680.62c-2.21,2.21-4.86,3.83-7.96,4.87-3.1,1.04-6.31,1.57-9.61,1.57s-6.5-.52-9.57-1.57c-3.08-1.04-5.71-2.64-7.92-4.78-2.26-2.2-3.96-4.84-5.09-7.92-1.13-3.07-1.7-6.23-1.7-9.48s.57-6.41,1.7-9.48c1.13-3.07,2.83-5.71,5.09-7.92,2.2-2.14,4.86-3.75,7.96-4.83,3.1-1.07,6.31-1.61,9.61-1.61s6.42.54,9.53,1.61c3.1,1.07,5.76,2.68,7.96,4.83,2.26,2.21,3.96,4.84,5.09,7.92,1.13,3.08,1.7,6.24,1.7,9.48s-.57,6.41-1.7,9.48-2.83,5.71-5.09,7.92v-.09ZM2213.77,676.35c.4.17.8.32,1.17.44.38.12.74.2,1.09.26,2.78.41,5.39-.12,7.83-1.57,2.44-1.45,4.06-3.57,4.87-6.35.29-.99.51-2.04.65-3.18.14-1.13.22-2.28.22-3.44-.12-2.55-.73-4.97-1.83-7.26-1.1-2.29-2.87-3.96-5.31-5-.52-.23-1.07-.41-1.65-.52-.58-.12-1.13-.2-1.65-.26-2.67-.23-5.16.38-7.48,1.83-2.32,1.45-3.89,3.48-4.7,6.09-.29.99-.51,2.02-.65,3.09-.15,1.07-.19,2.13-.13,3.17.06,2.73.68,5.29,1.87,7.7,1.19,2.41,3.09,4.1,5.7,5.09v-.09Z"/>
  </g>
  <g>
    <path fill="#fff" d="M1552.24,537c-14.55,0-25.93-4.1-34.13-12.3-8.2-8.2-12.67-19.45-13.41-33.76-.25-6.54.43-12.92,2.03-19.15,1.6-6.23,4.44-11.93,8.51-17.11,5.06-6.29,10.88-10.36,17.48-12.21,6.6-1.85,13.66-2.77,21.18-2.77l22.01-.19v-35.33h25.71v132.83h-49.39ZM1575.92,516.1v-55.5c-.99.12-1.97.18-2.96.18h-10.17c-2.22,0-4.41.03-6.57.09-2.16.06-4.35.22-6.57.46-1.97.12-3.86.68-5.64,1.67-1.79.99-3.42,2.16-4.9,3.52-2.59,2.59-4.41,5.58-5.46,8.97-1.05,3.39-1.7,6.82-1.94,10.27v5.37c.37,13.07,4.1,20.6,11.19,22.57,7.09,1.97,15.57,2.9,25.44,2.77,1.23-.12,2.5-.19,3.79-.19h3.79v-.18Z"/>
    <path fill="#fff" d="M1706.53,525.35c-4.69,4.69-10.33,8.14-16.93,10.36-6.6,2.22-13.41,3.33-20.44,3.33s-13.81-1.11-20.35-3.33c-6.54-2.22-12.15-5.61-16.83-10.18-4.81-4.69-8.42-10.3-10.82-16.83-2.41-6.54-3.61-13.26-3.61-20.17s1.2-13.63,3.61-20.16c2.41-6.54,6.01-12.15,10.82-16.84,4.69-4.56,10.33-7.98,16.93-10.27,6.6-2.28,13.41-3.42,20.44-3.42s13.66,1.14,20.26,3.42c6.6,2.28,12.24,5.71,16.93,10.27,4.81,4.69,8.42,10.3,10.82,16.84,2.41,6.54,3.61,13.26,3.61,20.16s-1.2,13.63-3.61,20.17c-2.41,6.54-6.01,12.15-10.82,16.83v-.18ZM1660.46,516.28c.86.37,1.69.68,2.5.93.8.25,1.57.43,2.31.55,5.92.86,11.47-.25,16.65-3.33,5.18-3.08,8.63-7.58,10.36-13.51.62-2.1,1.08-4.35,1.39-6.75.31-2.4.46-4.84.46-7.31-.25-5.43-1.54-10.57-3.88-15.45-2.34-4.87-6.11-8.42-11.29-10.64-1.11-.49-2.28-.86-3.51-1.11-1.23-.25-2.41-.43-3.52-.55-5.67-.49-10.98.8-15.91,3.88-4.93,3.08-8.26,7.4-9.99,12.95-.62,2.1-1.08,4.29-1.39,6.57-.31,2.28-.4,4.53-.28,6.75.12,5.8,1.45,11.26,3.98,16.37,2.53,5.12,6.57,8.73,12.12,10.82v-.19Z"/>
    <path fill="#fff" d="M1745.19,439.5v-35.33h25.71v35.33h27.19v19.43h-27.19v39.4c-.12,9.74,2.1,15.42,6.66,17.02,4.56,1.6,10.85,2.4,18.87,2.4h1.66v19.24h-23.49c-9.75,0-17.08-2.71-22.02-8.14-4.93-5.43-7.4-12.83-7.4-22.2v-47.73h-18.13v-19.43h18.13Z"/>
    <path fill="#fff" d="M1836.67,534.5c-6.48-1.67-12.18-5.15-17.11-10.45-3.95-4.32-6.82-9.25-8.6-14.8-1.79-5.55-2.87-11.22-3.24-17.02v-6.2c0-.8.06-1.63.19-2.5.37-5.55,1.45-11.01,3.24-16.37,1.79-5.37,4.59-10.14,8.42-14.34,4.93-5.43,10.64-8.97,17.11-10.64,6.47-1.67,13.16-2.5,20.07-2.5l37.55-.19v20.35h-34.04c-7.15.12-12.89,1.2-17.21,3.24-4.32,2.04-6.6,7.12-6.84,15.26l58.09-.19v20.35h-58.09c.25,8.51,2.41,13.69,6.47,15.54,4.07,1.85,9.87,2.77,17.39,2.77l34.22-.19v20.35h-37.55c-6.91,0-13.6-.83-20.07-2.5Z"/>
    <path fill="#fff" d="M1959.23,439.5c12.83.12,22.82,2.65,29.97,7.58,7.15,4.93,10.73,14.37,10.73,28.31v61.6h-25.71v-58.65c0-6.78-1.11-11.35-3.33-13.69-2.22-2.34-6.78-3.52-13.69-3.52l-20.72-.19v76.04h-25.72v-97.5h48.47Z"/>
    <path fill="#fff" d="M2039.71,439.5l27.01,69.19,28.68-69.19h27.75l-43.29,97.5h-27.75l-41.26-97.5h28.86Z"/>
    <path fill="#fff" d="M2123.69,439.5h29.97l20.9,29.42,21.46-29.42h29.6l-36.08,49.4,35.52,48.1h-29.97l-20.54-28.31-20.72,28.31h-29.79l35.89-48.65-36.26-48.84Z"/>
  </g>
  <g>
    <path fill="#fff" d="M133.04,1094.13v-3.62h17.98v3.62h-6.76v17.17h-4.52v-17.17h-6.7Z"/>
    <path fill="#fff" d="M156.73,1090.47v5.54h3.6c1.97.04,3.52.45,4.65,1.22,1.13.77,1.71,2.24,1.73,4.41v9.66h-4.06v-9.22c0-.97-.19-1.65-.58-2.06-.39-.41-1.09-.61-2.12-.61l-3.22-.03v11.92h-4v-20.82h4Z"/>
    <path fill="#fff" d="M173.86,1110.9c-1.02-.26-1.91-.81-2.68-1.64-.62-.68-1.07-1.45-1.35-2.32-.28-.87-.45-1.76-.51-2.67v-.97c0-.13,0-.26.03-.39.06-.87.23-1.73.51-2.57.28-.84.72-1.59,1.32-2.25.77-.85,1.67-1.41,2.68-1.67,1.01-.26,2.06-.39,3.15-.39l5.89-.03v3.19h-5.34c-1.12.02-2.02.19-2.7.51-.68.32-1.03,1.12-1.07,2.39l9.11-.03v3.19h-9.11c.04,1.33.38,2.15,1.02,2.44.64.29,1.55.43,2.73.43l5.36-.03v3.19h-5.89c-1.08,0-2.13-.13-3.15-.39Z"/>
    <path fill="#fff" d="M206.61,1090.47s.04.03.07.03h1.17c.37,0,.73.02,1.1.06.66.04,1.31.13,1.96.28.65.15,1.25.38,1.81.71,1.02.6,1.75,1.42,2.19,2.46.44,1.04.66,2.14.68,3.28.02,1.04-.16,2.05-.54,3.02-.38.97-1,1.77-1.87,2.41-.74.52-1.53.87-2.39,1.03-.86.17-1.74.27-2.62.3h-1.39l-5.31-.03v7.28h-4.38v-20.82h9.51ZM206.55,1094.18h-5.08v6.15h5.34c1.06,0,1.98-.21,2.76-.62.77-.42,1.16-1.22,1.16-2.42.04-1.33-.37-2.18-1.23-2.54-.86-.36-1.84-.54-2.94-.54v-.03Z"/>
    <path fill="#fff" d="M223,1098.91h8.03v-8.44h4.38v20.82h-4.38v-8.7h-8.03v8.7h-4.38v-20.82h4.38v8.44Z"/>
    <path fill="#fff" d="M249.21,1090.47s.04.03.07.03h1.17c.37,0,.73.02,1.1.06.66.04,1.31.13,1.96.28.65.15,1.25.38,1.81.71,1.02.6,1.75,1.42,2.19,2.46.44,1.04.66,2.14.68,3.28.02,1.04-.16,2.05-.54,3.02-.38.97-1,1.77-1.87,2.41-.74.52-1.53.87-2.39,1.03-.86.17-1.74.27-2.62.3h-1.39l-5.31-.03v7.28h-4.38v-20.82h9.51ZM249.15,1094.18h-5.08v6.15h5.34c1.06,0,1.98-.21,2.76-.62.77-.42,1.16-1.22,1.16-2.42.04-1.33-.37-2.18-1.23-2.54-.86-.36-1.84-.54-2.94-.54v-.03Z"/>
    <path fill="#fff" d="M277.01,1110.99c-1.15-.2-2.21-.82-3.18-1.84-.83-.87-1.35-1.85-1.57-2.93-.21-1.08-.32-2.19-.32-3.33v-12.41h4.38v11.43c-.02,1.93.19,3.41.64,4.44.44,1.03,1.82,1.54,4.12,1.54l5.16-.03v3.45h-5.54c-1.31,0-2.55-.1-3.7-.3Z"/>
    <path fill="#fff" d="M301.09,1109.47c-.73.74-1.62,1.28-2.65,1.62-1.03.35-2.1.52-3.2.52s-2.17-.17-3.19-.52c-1.02-.35-1.9-.88-2.64-1.59-.75-.73-1.32-1.61-1.7-2.64-.38-1.03-.57-2.08-.57-3.16s.19-2.14.57-3.16.94-1.9,1.7-2.64c.73-.71,1.62-1.25,2.65-1.61,1.03-.36,2.1-.54,3.2-.54s2.14.18,3.18.54c1.03.36,1.92.89,2.65,1.61.75.74,1.32,1.62,1.7,2.64s.57,2.08.57,3.16-.19,2.14-.57,3.16c-.38,1.02-.94,1.9-1.7,2.64v-.03ZM293.87,1108.05c.13.06.27.11.39.15.13.04.25.07.36.09.93.13,1.8-.04,2.61-.52s1.35-1.19,1.62-2.12c.1-.33.17-.68.22-1.06.05-.38.07-.76.07-1.15-.04-.85-.24-1.66-.61-2.42-.37-.76-.96-1.32-1.77-1.67-.17-.08-.36-.13-.55-.17-.19-.04-.38-.07-.55-.09-.89-.08-1.72.13-2.49.61s-1.3,1.16-1.57,2.03c-.1.33-.17.67-.22,1.03-.05.36-.06.71-.04,1.06.02.91.23,1.76.62,2.57.4.8,1.03,1.37,1.9,1.7v-.03Z"/>
    <path fill="#fff" d="M318.81,1115.27c-.89,1.02-2.37,1.54-4.44,1.54h-7.92v-3.1h7.22c.81-.02,1.43-.23,1.84-.62.42-.4.6-.99.57-1.78h-3.28c-1.12,0-2.15-.07-3.07-.2-.93-.13-1.82-.62-2.67-1.45-.68-.66-1.19-1.43-1.55-2.32-.36-.89-.58-1.8-.68-2.73,0-.15,0-.3-.01-.45,0-.15-.01-.29-.01-.42,0-.17,0-.35.01-.52s.02-.35.04-.52c.1-.89.32-1.76.68-2.61.36-.85.87-1.6,1.52-2.23.79-.75,1.68-1.24,2.67-1.46.99-.22,2.01-.33,3.07-.33l7.34-.03v14.73c0,1.99-.44,3.5-1.33,4.52ZM314,1108.13h2.09v-8.84c-.17.02-.35.03-.52.03s-.35,0-.52-.03h-.75c-1.26-.02-2.42.16-3.49.52-1.07.37-1.66,1.4-1.75,3.1,0,.12,0,.23-.01.35s-.01.23-.01.35c-.02.73.07,1.45.28,2.16s.63,1.29,1.29,1.75c.35.25.73.42,1.15.49.42.08.84.13,1.26.15h1.02v-.03Z"/>
    <path fill="#fff" d="M336.44,1109.47c-.73.74-1.62,1.28-2.65,1.62-1.03.35-2.1.52-3.2.52s-2.17-.17-3.19-.52c-1.02-.35-1.9-.88-2.64-1.59-.75-.73-1.32-1.61-1.7-2.64-.38-1.03-.57-2.08-.57-3.16s.19-2.14.57-3.16.94-1.9,1.7-2.64c.73-.71,1.62-1.25,2.65-1.61,1.03-.36,2.1-.54,3.2-.54s2.14.18,3.18.54c1.03.36,1.92.89,2.65,1.61.75.74,1.32,1.62,1.7,2.64s.57,2.08.57,3.16-.19,2.14-.57,3.16c-.38,1.02-.94,1.9-1.7,2.64v-.03ZM329.22,1108.05c.13.06.27.11.39.15.13.04.25.07.36.09.93.13,1.8-.04,2.61-.52s1.35-1.19,1.62-2.12c.1-.33.17-.68.22-1.06.05-.38.07-.76.07-1.15-.04-.85-.24-1.66-.61-2.42-.37-.76-.96-1.32-1.77-1.67-.17-.08-.36-.13-.55-.17-.19-.04-.38-.07-.55-.09-.89-.08-1.72.13-2.49.61s-1.3,1.16-1.57,2.03c-.1.33-.17.67-.22,1.03-.05.36-.06.71-.04,1.06.02.91.23,1.76.62,2.57.4.8,1.03,1.37,1.9,1.7v-.03Z"/>
    <path fill="#fff" d="M352.39,1094.27v-3.8h4.23v3.8h-4.23ZM352.39,1111.29v-15.28h4.23v15.28h-4.23Z"/>
    <path fill="#fff" d="M368.37,1108.1s.08.03.12.03h.12c.48-.02.93-.12,1.33-.32.41-.19.61-.59.61-1.19,0-.56-.19-.94-.58-1.13-.39-.19-.8-.31-1.25-.35h-.35l-3.48-.03c-1.62.02-2.9-.2-3.84-.67-.94-.46-1.42-1.64-1.44-3.54-.02-1.78.46-3.04,1.45-3.77.99-.73,2.3-1.1,3.94-1.1l8.67-.03v3.19h-7.13c-.06.02-.11.03-.16.03h-.97c-.35.02-.68.1-1,.23-.32.14-.53.39-.62.75-.15.68-.02,1.14.41,1.39.42.25.92.38,1.48.38l3.65-.03c1.43.02,2.63.35,3.6,1,.97.65,1.48,1.76,1.54,3.35v.09c.02,1.24-.33,2.36-1.06,3.38s-1.76,1.52-3.12,1.52h-10.41v-3.19h8.5Z"/>
    <path fill="#fff" d="M392.61,1096.01h3.48c1.18.02,2.29.17,3.34.46,1.04.29,1.95.93,2.73,1.91.64.81,1.08,1.71,1.33,2.68.25.98.35,1.98.29,3-.1,2.24-.79,4.01-2.07,5.29-1.29,1.29-3.07,1.93-5.35,1.93h-7.77v-20.82h4.03v5.54ZM395.08,1099.32h-2.47v8.7c.19.02.39.03.59.04s.4.01.59.01c1.35.04,2.61-.07,3.76-.32,1.15-.25,1.8-1.25,1.96-2.99.02-.23.03-.47.04-.71,0-.24.01-.48.01-.71-.02-.42-.08-.84-.17-1.25-.1-.41-.25-.78-.46-1.13-.43-.77-.97-1.24-1.64-1.39-.67-.15-1.41-.23-2.22-.23v-.03Z"/>
    <path fill="#fff" d="M412.83,1107.93h3.25v-11.92h4.03v14.88c0,1.95-.45,3.43-1.36,4.42-.91,1-2.37,1.49-4.38,1.49h-7.92v-3.1h7.22c.81-.02,1.42-.22,1.83-.61.41-.39.6-.99.58-1.8h-3.57c-2.07,0-3.64-.42-4.73-1.25-1.08-.83-1.62-2.36-1.62-4.58v-9.45h4v9.11c0,1.12.17,1.88.51,2.26s1.06.58,2.16.58v-.03Z"/>
    <path fill="#fff" d="M439.85,1096.13c-.62,1.37-.96,2.97-1.02,4.79v.94c0,.32,0,.64.03.97.06.68.18,1.34.38,1.99.19.65.51,1.22.96,1.73.46.52,1,.85,1.61.97.61.13,1.23.19,1.87.19h.26l7.19-.03v3.62h-7.4c-1.18,0-2.32-.11-3.41-.32-1.09-.21-2.12-.71-3.09-1.48-1.16-.95-1.97-2.1-2.44-3.47-.46-1.36-.72-2.76-.75-4.19-.02-.31-.02-.61-.01-.9,0-.29.02-.58.04-.87.21-3.29,1.11-5.7,2.68-7.25,1.58-1.55,3.94-2.32,7.09-2.32l7.28-.03v3.57h-7.19c-2.11.02-3.47.72-4.09,2.09Z"/>
    <path fill="#fff" d="M466.88,1109.47c-.73.74-1.62,1.28-2.65,1.62-1.03.35-2.1.52-3.2.52s-2.17-.17-3.19-.52c-1.02-.35-1.9-.88-2.64-1.59-.75-.73-1.32-1.61-1.7-2.64-.38-1.03-.57-2.08-.57-3.16s.19-2.14.57-3.16.94-1.9,1.7-2.64c.73-.71,1.62-1.25,2.65-1.61,1.03-.36,2.1-.54,3.2-.54s2.14.18,3.18.54c1.03.36,1.92.89,2.65,1.61.75.74,1.32,1.62,1.7,2.64s.57,2.08.57,3.16-.19,2.14-.57,3.16c-.38,1.02-.94,1.9-1.7,2.64v-.03ZM459.66,1108.05c.13.06.27.11.39.15.13.04.25.07.36.09.93.13,1.8-.04,2.61-.52s1.35-1.19,1.62-2.12c.1-.33.17-.68.22-1.06.05-.38.07-.76.07-1.15-.04-.85-.24-1.66-.61-2.42-.37-.76-.96-1.32-1.77-1.67-.17-.08-.36-.13-.55-.17-.19-.04-.38-.07-.55-.09-.89-.08-1.72.13-2.49.61s-1.3,1.16-1.57,2.03c-.1.33-.17.67-.22,1.03-.05.36-.06.71-.04,1.06.02.91.23,1.76.62,2.57.4.8,1.03,1.37,1.9,1.7v-.03Z"/>
    <path fill="#fff" d="M471.55,1111.29v-20.82h4.21v20.82h-4.21Z"/>
    <path fill="#fff" d="M479.21,1094.27v-3.8h4.23v3.8h-4.23ZM479.21,1111.29v-15.28h4.23v15.28h-4.23Z"/>
    <path fill="#fff" d="M494.52,1096.01c2.01.02,3.58.42,4.7,1.19,1.12.77,1.68,2.25,1.68,4.44v9.66h-4.03v-9.19c0-1.06-.17-1.78-.52-2.15s-1.06-.55-2.15-.55l-3.25-.03v11.92h-4.03v-15.28h7.6Z"/>
    <path fill="#fff" d="M512.9,1090.47h4.93l6.26,15.52,6.41-15.52h4.67l-8.7,20.82h-4.52l-9.05-20.82Z"/>
    <path fill="#fff" d="M535.87,1094.27v-3.8h4.23v3.8h-4.23ZM535.87,1111.29v-15.28h4.23v15.28h-4.23Z"/>
    <path fill="#fff" d="M547.25,1110.9c-1.02-.26-1.91-.81-2.68-1.64-.62-.68-1.07-1.45-1.35-2.32-.28-.87-.45-1.76-.51-2.67v-.97c0-.13,0-.26.03-.39.06-.87.23-1.73.51-2.57.28-.84.72-1.59,1.32-2.25.77-.85,1.67-1.41,2.68-1.67,1.01-.26,2.06-.39,3.15-.39l5.89-.03v3.19h-5.34c-1.12.02-2.02.19-2.7.51-.68.32-1.03,1.12-1.07,2.39l9.11-.03v3.19h-9.11c.04,1.33.38,2.15,1.02,2.44.64.29,1.55.43,2.73.43l5.36-.03v3.19h-5.89c-1.08,0-2.13-.13-3.15-.39Z"/>
    <path fill="#fff" d="M562.93,1096.01h3.48c1.18.02,2.29.17,3.34.46,1.04.29,1.95.93,2.73,1.91.64.81,1.08,1.71,1.33,2.68.25.98.35,1.98.29,3-.1,2.24-.79,4.01-2.07,5.29-1.29,1.29-3.07,1.93-5.35,1.93h-7.77v-20.82h4.03v5.54ZM565.39,1099.32h-2.47v8.7c.19.02.39.03.59.04s.4.01.59.01c1.35.04,2.61-.07,3.76-.32,1.15-.25,1.8-1.25,1.96-2.99.02-.23.03-.47.04-.71,0-.24.01-.48.01-.71-.02-.42-.08-.84-.17-1.25-.1-.41-.25-.78-.46-1.13-.43-.77-.97-1.24-1.64-1.39-.67-.15-1.41-.23-2.22-.23v-.03Z"/>
    <path fill="#fff" d="M583.37,1096.01c2.18.02,3.45.52,3.8,1.51.35.99.51,2.31.49,3.97v.96l-3.86-.03v-.64c0-1.41-.11-2.23-.33-2.46-.22-.23-1.03-.35-2.42-.35h-.44v12.33h-4.03v-15.28h6.79Z"/>
    <path fill="#fff" d="M603.15,1109.47c-.73.74-1.62,1.28-2.65,1.62-1.03.35-2.1.52-3.2.52s-2.17-.17-3.19-.52c-1.02-.35-1.9-.88-2.64-1.59-.75-.73-1.32-1.61-1.7-2.64-.38-1.03-.57-2.08-.57-3.16s.19-2.14.57-3.16.94-1.9,1.7-2.64c.73-.71,1.62-1.25,2.65-1.61,1.03-.36,2.1-.54,3.2-.54s2.14.18,3.18.54c1.03.36,1.92.89,2.65,1.61.75.74,1.32,1.62,1.7,2.64s.57,2.08.57,3.16-.19,2.14-.57,3.16c-.38,1.02-.94,1.9-1.7,2.64v-.03ZM595.93,1108.05c.13.06.27.11.39.15.13.04.25.07.36.09.93.13,1.8-.04,2.61-.52s1.35-1.19,1.62-2.12c.1-.33.17-.68.22-1.06.05-.38.07-.76.07-1.15-.04-.85-.24-1.66-.61-2.42-.37-.76-.96-1.32-1.77-1.67-.17-.08-.36-.13-.55-.17-.19-.04-.38-.07-.55-.09-.89-.08-1.72.13-2.49.61s-1.3,1.16-1.57,2.03c-.1.33-.17.67-.22,1.03-.05.36-.06.71-.04,1.06.02.91.23,1.76.62,2.57.4.8,1.03,1.37,1.9,1.7v-.03Z"/>
    <path fill="#fff" d="M616.2,1108.02h4.29v3.28h-5.48c-1.04,0-2.06-.11-3.06-.33-1-.22-1.89-.71-2.68-1.46-.66-.64-1.17-1.39-1.54-2.25-.37-.86-.6-1.74-.7-2.65,0-.13,0-.28-.01-.42,0-.15-.01-.29-.01-.42,0-.17,0-.35.01-.52,0-.17.02-.35.04-.52.08-.89.3-1.76.67-2.61.37-.85.88-1.59,1.54-2.23.79-.75,1.69-1.25,2.68-1.48,1-.23,2.02-.35,3.06-.35l5.48-.03v3.31h-4.29c-.06.02-.12.03-.19.03h-.83c-.39,0-.76.03-1.13.09-.37.06-.72.18-1.04.38-.72.43-1.19,1-1.44,1.71-.24.72-.36,1.46-.36,2.23.02.75.15,1.47.41,2.16.25.69.71,1.23,1.39,1.64.33.19.68.32,1.04.38.37.06.74.1,1.13.12h1.02v-.03Z"/>
    <path fill="#fff" d="M627.31,1090.47v12.88l6.5-7.34h5.1l-7.08,7.48,7.08,7.8h-5.42l-6.18-7.42v7.42h-4.03v-20.82h4.03Z"/>
    <path fill="#fff" d="M660.43,1096.01c.89.02,1.74.12,2.57.3.82.18,1.56.6,2.22,1.26.56.54.95,1.18,1.17,1.91.22.73.33,1.49.33,2.26v9.54h-10.85c-1.57,0-2.77-.43-3.6-1.29s-1.21-2.05-1.13-3.58c.14-1.84.78-3.03,1.94-3.57,1.16-.54,2.54-.81,4.15-.81l5.31-.03c.06-1.26-.27-2.04-.97-2.35-.71-.31-1.6-.46-2.68-.46l-6.73-.03v-3.16h8.27ZM657.52,1108.22h5.05v-3.16h-4.76s-.08.03-.12.03h-.12c-.54.02-1.04.12-1.51.3-.46.18-.71.61-.73,1.29-.04.75.17,1.2.62,1.33.45.14.97.21,1.55.23v-.03Z"/>
    <path fill="#fff" d="M677.85,1096.01c2.01.02,3.58.42,4.7,1.19,1.12.77,1.68,2.25,1.68,4.44v9.66h-4.03v-9.19c0-1.06-.17-1.78-.52-2.15s-1.06-.55-2.15-.55l-3.25-.03v11.92h-4.03v-15.28h7.6Z"/>
    <path fill="#fff" d="M694.06,1111.29c-2.28,0-4.06-.64-5.35-1.93-1.29-1.29-1.99-3.05-2.1-5.29-.04-1.02.07-2.03.32-3,.25-.98.7-1.87,1.33-2.68.79-.99,1.71-1.62,2.74-1.91s2.14-.43,3.32-.43l3.45-.03v-5.54h4.03v20.82h-7.74ZM697.78,1108.02v-8.7c-.15.02-.31.03-.46.03h-1.6c-.35,0-.69,0-1.03.01-.34,0-.68.03-1.03.07-.31.02-.6.11-.88.26-.28.15-.54.34-.77.55-.41.41-.69.88-.86,1.41-.16.53-.27,1.07-.3,1.61v.84c.06,2.05.64,3.23,1.75,3.54,1.11.31,2.44.46,3.99.44.19-.02.39-.03.59-.03h.59v-.03Z"/>
    <path fill="#fff" d="M716.54,1094.27v-3.8h4.23v3.8h-4.23ZM716.54,1111.29v-15.28h4.23v15.28h-4.23Z"/>
    <path fill="#fff" d="M732.52,1108.1s.08.03.12.03h.12c.48-.02.93-.12,1.33-.32.41-.19.61-.59.61-1.19,0-.56-.19-.94-.58-1.13-.39-.19-.8-.31-1.25-.35h-.35l-3.48-.03c-1.62.02-2.9-.2-3.84-.67-.94-.46-1.42-1.64-1.44-3.54-.02-1.78.46-3.04,1.45-3.77.99-.73,2.3-1.1,3.94-1.1l8.67-.03v3.19h-7.13c-.06.02-.11.03-.16.03h-.97c-.35.02-.68.1-1,.23-.32.14-.53.39-.62.75-.15.68-.02,1.14.41,1.39.42.25.92.38,1.48.38l3.65-.03c1.43.02,2.63.35,3.6,1,.97.65,1.48,1.76,1.54,3.35v.09c.02,1.24-.33,2.36-1.06,3.38s-1.76,1.52-3.12,1.52h-10.41v-3.19h8.5Z"/>
    <path fill="#fff" d="M759.49,1096.01c2.18.02,3.45.52,3.8,1.51.35.99.51,2.31.49,3.97v.96l-3.86-.03v-.64c0-1.41-.11-2.23-.33-2.46-.22-.23-1.03-.35-2.42-.35h-.44v12.33h-4.03v-15.28h6.79Z"/>
    <path fill="#fff" d="M770,1110.9c-1.02-.26-1.91-.81-2.68-1.64-.62-.68-1.07-1.45-1.35-2.32-.28-.87-.45-1.76-.51-2.67v-.97c0-.13,0-.26.03-.39.06-.87.23-1.73.51-2.57.28-.84.72-1.59,1.32-2.25.77-.85,1.67-1.41,2.68-1.67,1.01-.26,2.06-.39,3.15-.39l5.89-.03v3.19h-5.34c-1.12.02-2.02.19-2.7.51-.68.32-1.03,1.12-1.07,2.39l9.11-.03v3.19h-9.11c.04,1.33.38,2.15,1.02,2.44.64.29,1.55.43,2.73.43l5.36-.03v3.19h-5.89c-1.08,0-2.13-.13-3.15-.39Z"/>
    <path fill="#fff" d="M781.56,1111.29v-20.82h4.21v20.82h-4.21Z"/>
    <path fill="#fff" d="M792.88,1110.9c-1.02-.26-1.91-.81-2.68-1.64-.62-.68-1.07-1.45-1.35-2.32-.28-.87-.45-1.76-.51-2.67v-.97c0-.13,0-.26.03-.39.06-.87.23-1.73.51-2.57.28-.84.72-1.59,1.32-2.25.77-.85,1.67-1.41,2.68-1.67,1.01-.26,2.06-.39,3.15-.39l5.89-.03v3.19h-5.34c-1.12.02-2.02.19-2.7.51-.68.32-1.03,1.12-1.07,2.39l9.11-.03v3.19h-9.11c.04,1.33.38,2.15,1.02,2.44.64.29,1.55.43,2.73.43l5.36-.03v3.19h-5.89c-1.08,0-2.13-.13-3.15-.39Z"/>
    <path fill="#fff" d="M813.08,1096.01c.89.02,1.74.12,2.57.3.82.18,1.56.6,2.22,1.26.56.54.95,1.18,1.17,1.91.22.73.33,1.49.33,2.26v9.54h-10.85c-1.57,0-2.77-.43-3.6-1.29s-1.21-2.05-1.13-3.58c.14-1.84.78-3.03,1.94-3.57,1.16-.54,2.54-.81,4.15-.81l5.31-.03c.06-1.26-.27-2.04-.97-2.35-.71-.31-1.6-.46-2.68-.46l-6.73-.03v-3.16h8.27ZM810.18,1108.22h5.05v-3.16h-4.76s-.08.03-.12.03h-.12c-.54.02-1.04.12-1.51.3-.46.18-.71.61-.73,1.29-.04.75.17,1.2.62,1.33.45.14.97.21,1.55.23v-.03Z"/>
    <path fill="#fff" d="M831.17,1108.1s.08.03.12.03h.12c.48-.02.93-.12,1.33-.32.41-.19.61-.59.61-1.19,0-.56-.19-.94-.58-1.13-.39-.19-.8-.31-1.25-.35h-.35l-3.48-.03c-1.62.02-2.9-.2-3.84-.67-.94-.46-1.42-1.64-1.44-3.54-.02-1.78.46-3.04,1.45-3.77.99-.73,2.3-1.1,3.94-1.1l8.67-.03v3.19h-7.13c-.06.02-.11.03-.16.03h-.97c-.35.02-.68.1-1,.23-.32.14-.53.39-.62.75-.15.68-.02,1.14.41,1.39.42.25.92.38,1.48.38l3.65-.03c1.43.02,2.63.35,3.6,1,.97.65,1.48,1.76,1.54,3.35v.09c.02,1.24-.33,2.36-1.06,3.38s-1.76,1.52-3.12,1.52h-10.41v-3.19h8.5Z"/>
    <path fill="#fff" d="M843.8,1110.9c-1.02-.26-1.91-.81-2.68-1.64-.62-.68-1.07-1.45-1.35-2.32-.28-.87-.45-1.76-.51-2.67v-.97c0-.13,0-.26.03-.39.06-.87.23-1.73.51-2.57.28-.84.72-1.59,1.32-2.25.77-.85,1.67-1.41,2.68-1.67,1.01-.26,2.06-.39,3.15-.39l5.89-.03v3.19h-5.34c-1.12.02-2.02.19-2.7.51-.68.32-1.03,1.12-1.07,2.39l9.11-.03v3.19h-9.11c.04,1.33.38,2.15,1.02,2.44.64.29,1.55.43,2.73.43l5.36-.03v3.19h-5.89c-1.08,0-2.13-.13-3.15-.39Z"/>
    <path fill="#fff" d="M861.83,1111.29c-2.28,0-4.06-.64-5.35-1.93-1.29-1.29-1.99-3.05-2.1-5.29-.04-1.02.07-2.03.32-3,.25-.98.7-1.87,1.33-2.68.79-.99,1.71-1.62,2.74-1.91s2.14-.43,3.32-.43l3.45-.03v-5.54h4.03v20.82h-7.74ZM865.54,1108.02v-8.7c-.15.02-.31.03-.46.03h-1.6c-.35,0-.69,0-1.03.01-.34,0-.68.03-1.03.07-.31.02-.6.11-.88.26-.28.15-.54.34-.77.55-.41.41-.69.88-.86,1.41-.16.53-.27,1.07-.3,1.61v.84c.06,2.05.64,3.23,1.75,3.54,1.11.31,2.44.46,3.99.44.19-.02.39-.03.59-.03h.59v-.03Z"/>
    <path fill="#fff" d="M890.54,1111.29c-1.95,0-3.5-.39-4.64-1.16-1.14-.77-1.71-2.24-1.71-4.41v-9.71h4.03v9.37c0,1.03.19,1.71.58,2.06.39.35,1.07.52,2.06.52l3.25-.03v-11.92h4.03v15.28h-7.6Z"/>
    <path fill="#fff" d="M909.36,1096.01c2.01.02,3.58.42,4.7,1.19,1.12.77,1.68,2.25,1.68,4.44v9.66h-4.03v-9.19c0-1.06-.17-1.78-.52-2.15s-1.06-.55-2.15-.55l-3.25-.03v11.92h-4.03v-15.28h7.6Z"/>
    <path fill="#fff" d="M925.57,1111.29c-2.28,0-4.06-.64-5.35-1.93-1.29-1.29-1.99-3.05-2.1-5.29-.04-1.02.07-2.03.32-3,.25-.98.7-1.87,1.33-2.68.79-.99,1.71-1.62,2.74-1.91s2.14-.43,3.32-.43l3.45-.03v-5.54h4.03v20.82h-7.74ZM929.28,1108.02v-8.7c-.15.02-.31.03-.46.03h-1.6c-.35,0-.69,0-1.03.01-.34,0-.68.03-1.03.07-.31.02-.6.11-.88.26-.28.15-.54.34-.77.55-.41.41-.69.88-.86,1.41-.16.53-.27,1.07-.3,1.61v.84c.06,2.05.64,3.23,1.75,3.54,1.11.31,2.44.46,3.99.44.19-.02.39-.03.59-.03h.59v-.03Z"/>
    <path fill="#fff" d="M940.49,1110.9c-1.02-.26-1.91-.81-2.68-1.64-.62-.68-1.07-1.45-1.35-2.32-.28-.87-.45-1.76-.51-2.67v-.97c0-.13,0-.26.03-.39.06-.87.23-1.73.51-2.57.28-.84.72-1.59,1.32-2.25.77-.85,1.67-1.41,2.68-1.67,1.01-.26,2.06-.39,3.15-.39l5.89-.03v3.19h-5.34c-1.12.02-2.02.19-2.7.51-.68.32-1.03,1.12-1.07,2.39l9.11-.03v3.19h-9.11c.04,1.33.38,2.15,1.02,2.44.64.29,1.55.43,2.73.43l5.36-.03v3.19h-5.89c-1.08,0-2.13-.13-3.15-.39Z"/>
    <path fill="#fff" d="M958.89,1096.01c2.18.02,3.45.52,3.8,1.51.35.99.51,2.31.49,3.97v.96l-3.86-.03v-.64c0-1.41-.11-2.23-.33-2.46-.22-.23-1.03-.35-2.42-.35h-.44v12.33h-4.03v-15.28h6.79Z"/>
    <path fill="#fff" d="M981.86,1096.13c-.62,1.37-.96,2.97-1.02,4.79v.94c0,.32,0,.64.03.97.06.68.18,1.34.38,1.99.19.65.51,1.22.96,1.73.46.52,1,.85,1.61.97.61.13,1.23.19,1.87.19h.26l7.19-.03v3.62h-7.4c-1.18,0-2.32-.11-3.41-.32-1.09-.21-2.12-.71-3.09-1.48-1.16-.95-1.97-2.1-2.44-3.47-.46-1.36-.72-2.76-.75-4.19-.02-.31-.02-.61-.01-.9,0-.29.02-.58.04-.87.21-3.29,1.11-5.7,2.68-7.25,1.58-1.55,3.94-2.32,7.09-2.32l7.28-.03v3.57h-7.19c-2.11.02-3.47.72-4.09,2.09Z"/>
    <path fill="#fff" d="M1000.85,1096.13c-.62,1.37-.96,2.97-1.02,4.79v.94c0,.32,0,.64.03.97.06.68.18,1.34.38,1.99.19.65.51,1.22.96,1.73.46.52,1,.85,1.61.97.61.13,1.23.19,1.87.19h.26l7.19-.03v3.62h-7.4c-1.18,0-2.32-.11-3.41-.32-1.09-.21-2.12-.71-3.09-1.48-1.16-.95-1.97-2.1-2.44-3.47-.46-1.36-.72-2.76-.75-4.19-.02-.31-.02-.61-.01-.9,0-.29.02-.58.04-.87.21-3.29,1.11-5.7,2.68-7.25,1.58-1.55,3.94-2.32,7.09-2.32l7.28-.03v3.57h-7.19c-2.11.02-3.47.72-4.09,2.09Z"/>
    <path fill="#fff" d="M1026.57,1111.29v-20.82h10.7c.17.02.35.03.52.03s.35,0,.52.03c1.43.06,2.77.33,4.02.81,1.25.48,2.06,1.55,2.45,3.19.33,1.49.24,2.74-.28,3.75-.51,1.02-1.4,1.89-2.65,2.62,1.39.66,2.32,1.51,2.78,2.55s.53,2.34.2,3.89c-.35,1.59-1.14,2.63-2.36,3.15-1.23.51-2.54.78-3.93.8h-11.98ZM1030.95,1099.03h6.41c.83.02,1.52-.14,2.06-.48.54-.34.81-.97.81-1.9.02-.91-.25-1.54-.81-1.89-.56-.35-1.25-.52-2.06-.52l-6.41-.03v4.81ZM1039.49,1107.13c.53-.36.8-1,.8-1.93s-.27-1.59-.8-1.94c-.53-.35-1.22-.52-2.07-.52l-6.47-.03v4.9h6.47c.85.04,1.54-.12,2.07-.48Z"/>
    <path fill="#fff" d="M1050.06,1090.47l5.13,7.95,5.22-7.95h5.07l-8.03,11.63v9.19h-4.38v-9.19l-7.92-11.63h4.9Z"/>
    <path fill="#fff" d="M1074.77,1101.64v3.62h-9.74v-3.62h9.74Z"/>
    <path fill="#fff" d="M1084.46,1094.18c-.95.02-1.75.22-2.39.59-.65.38-.97,1.1-.97,2.16,0,.81.28,1.39.83,1.74.55.35,1.19.52,1.93.52l5.8-.03c.21.02.44.03.67.03s.46,0,.7.03c.68.04,1.34.15,2,.33s1.24.52,1.74,1c.46.43.81.94,1.04,1.54.23.6.38,1.22.44,1.86.02.19.03.38.04.57,0,.18.01.37.01.57-.04,2.42-.71,4.06-2,4.92-1.3.86-3.06,1.29-5.28,1.29h-11.66v-3.71h10.96c.97.02,1.8-.13,2.51-.46.71-.33.99-1.07.86-2.23-.1-.91-.44-1.47-1.01-1.68-.58-.21-1.27-.33-2.06-.35l-5.16-.03c-2.15.02-3.84-.41-5.09-1.29-1.25-.88-1.86-2.47-1.84-4.77.04-2.42.71-4.06,2.02-4.94,1.31-.88,3.07-1.32,5.29-1.32l11.46-.03v3.71h-10.82Z"/>
    <path fill="#fff" d="M1110.18,1090.47l8.87,20.82h-4.87l-1.91-4.96h-9.05l-1.86,4.96h-4.61l8.79-20.82h4.64ZM1104.64,1102.62h6.21l-3.16-8-3.04,8Z"/>
    <path fill="#fff" d="M1130.48,1107.5v-4.03l12.24-13.02h5.54v13.48h2.84v3.57h-2.84v3.8h-4.38v-3.8h-13.4ZM1135.47,1103.93h8.41v-9.02l-8.41,9.02Z"/>
    <path fill="#fff" d="M1156.61,1107.67v3.62h-3.48v-3.62h3.48Z"/>
    <path fill="#fff" d="M1165.22,1111.18c-1.59-.39-2.88-1.03-3.87-1.94-1-.91-1.74-2.16-2.22-3.74-.19-.7-.34-1.43-.45-2.2-.11-.77-.16-1.57-.16-2.38s.05-1.58.16-2.35c.11-.77.26-1.51.45-2.2.48-1.55,1.22-2.79,2.22-3.73s2.29-1.6,3.87-1.99c.62-.15,1.26-.26,1.91-.33.66-.07,1.32-.1,2-.1.6,0,1.2.04,1.8.12s1.19.18,1.77.32c1.57.39,2.85,1.05,3.86,1.99s1.74,2.18,2.2,3.73c.21.7.37,1.43.46,2.2.1.77.15,1.56.15,2.35s-.05,1.6-.15,2.38-.25,1.51-.46,2.2c-.46,1.55-1.2,2.79-2.2,3.73s-2.29,1.6-3.86,1.99c-.58.12-1.17.21-1.78.28-.61.07-1.21.11-1.81.13-.68,0-1.34-.03-1.99-.1-.65-.07-1.28-.17-1.9-.3v-.03ZM1173.17,1106.57c.52-.56.92-1.36,1.19-2.39.27-1.03.41-2.11.41-3.23s-.14-2.2-.41-3.23c-.27-1.03-.67-1.84-1.19-2.42-.48-.54-1.11-.95-1.87-1.22-.76-.27-1.56-.4-2.39-.38-.79,0-1.57.13-2.33.39-.76.26-1.39.66-1.87,1.2-.52.58-.91,1.39-1.17,2.42-.26,1.04-.39,2.11-.39,3.23s.13,2.2.39,3.23c.26,1.03.65,1.84,1.17,2.42.5.54,1.13.94,1.89,1.2.75.26,1.54.39,2.35.39s1.6-.14,2.36-.41c.76-.27,1.39-.67,1.87-1.19v-.03Z"/>
  </g>
  <g>
    <path fill="#fff" d="M252.04,458.47h104.94c30.8.26,53.12,9.14,66.96,26.63,13.84,17.49,18.4,41.37,13.7,71.66-1.82,13.84-5.87,27.41-12.14,40.72-6.01,13.31-14.36,25.32-25.06,36.02-13.05,13.57-27.02,22.19-41.9,25.84-14.88,3.66-30.28,5.48-46.21,5.48h-46.99l-14.88,74.4h-54.43l55.99-280.75h0M297.85,503.1l-23.49,117.47c1.57.26,3.13.39,4.7.39h5.48c25.06.26,45.95-2.22,62.65-7.44,16.7-5.48,27.93-24.54,33.67-57.17,4.7-27.41,0-43.21-14.1-47.38-13.84-4.17-31.19-6.13-52.08-5.87-3.13.26-6.13.39-9.01.39h-8.22l.39-.39"/>
    <path fill="#fff" d="M499.64,383.68h54.04l-15.27,74.79h48.55c26.63.52,46.46,6.01,59.52,16.45,13.31,10.44,17.23,30.28,11.75,59.52l-26.24,130.39h-54.82l25.06-124.52c2.61-13.05,1.82-22.32-2.35-27.8-4.17-5.48-13.18-8.22-27.02-8.22l-43.46-.39-32.11,160.93h-54.04l56.39-281.15h0"/>
    <path fill="#fff" d="M716.25,458.47h104.94c30.8.26,53.12,9.14,66.96,26.63,13.84,17.49,18.4,41.37,13.7,71.66-1.82,13.84-5.87,27.41-12.14,40.72-6.01,13.31-14.36,25.32-25.06,36.02-13.05,13.57-27.02,22.19-41.9,25.84-14.88,3.66-30.28,5.48-46.21,5.48h-46.99l-14.88,74.4h-54.43l55.99-280.75h0M762.07,503.1l-23.49,117.47c1.57.26,3.13.39,4.7.39h5.48c25.06.26,45.95-2.22,62.65-7.44,16.7-5.48,27.93-24.54,33.67-57.17,4.7-27.41,0-43.21-14.1-47.38-13.84-4.17-31.19-6.13-52.08-5.87-3.13.26-6.13.39-9.01.39h-8.22l.39-.39"/>
  </g>
</svg>