<?xml version="1.0" encoding="UTF-8"?>
<svg xmlns="http://www.w3.org/2000/svg" version="1.1" viewBox="0 0 2842 1136">
  <rect x="0" width="2842" height="1136" fill="#777ab5"/>
  <g>
    <path fill="#fff" d="M1591.16,668.71c0,1.91-.24,3.66-.73,5.27s-1.16,3.05-2.04,4.34-1.93,2.41-3.16,3.38-2.62,1.78-4.17,2.44-3.2,1.15-4.97,1.48-3.79.49-6.07.49h-15.84c-.72,0-1.4-.24-2.04-.73s-.96-1.34-.96-2.55v-54.09c0-1.22.32-2.07.96-2.55s1.32-.73,2.04-.73h13.78c3.62,0,6.59.34,8.91,1.03s4.24,1.69,5.79,3,2.71,2.92,3.49,4.83,1.17,4.06,1.17,6.47c0,1.44-.17,2.81-.52,4.12s-.85,2.52-1.52,3.63-1.52,2.1-2.53,2.98-2.18,1.59-3.49,2.16c1.66.31,3.2.88,4.64,1.71s2.7,1.88,3.77,3.16,1.93,2.78,2.55,4.5.94,3.61.94,5.67ZM1579.02,641.57c0-1.47-.2-2.8-.61-3.98-.41-1.19-1.04-2.2-1.92-3.02s-2.01-1.46-3.41-1.9c-1.4-.44-3.26-.66-5.56-.66h-8.32v19.64h9.17c2.09,0,3.77-.27,5.05-.82,1.28-.55,2.34-1.28,3.18-2.2s1.46-2,1.85-3.23c.39-1.23.58-2.51.58-3.82ZM1582.67,669.17c0-1.81-.29-3.41-.87-4.78-.58-1.38-1.42-2.53-2.53-3.47s-2.5-1.65-4.16-2.13-3.77-.73-6.29-.73h-9.64v21.38h11.7c1.84,0,3.45-.22,4.82-.66s2.58-1.09,3.63-1.95c1.04-.86,1.86-1.93,2.46-3.21.59-1.28.89-2.77.89-4.45Z"/>
    <path fill="#fff" d="M1620.78,686.1l-5.62,15.52c-.19.5-.66.88-1.43,1.15s-1.93.4-3.49.4c-.81,0-1.47-.04-1.97-.12s-.88-.21-1.15-.4-.41-.44-.45-.75.05-.69.23-1.12l5.81-14.67c-.28-.12-.55-.33-.8-.61s-.42-.58-.52-.89l-15.05-40.31c-.25-.66-.38-1.17-.38-1.55s.12-.67.38-.89.66-.37,1.22-.45,1.31-.12,2.25-.12,1.67.02,2.2.07.95.13,1.27.26.54.3.68.54.29.55.45.96l12.05,33.84h.14l11.62-34.03c.19-.59.41-.98.68-1.15s.66-.3,1.2-.38,1.3-.12,2.3-.12c.88,0,1.59.04,2.16.12s.98.23,1.24.45.4.52.4.89-.09.84-.28,1.41l-15.14,41.95Z"/>
    <path fill="#fff" d="M1733.56,684.88c0,.25-.06.47-.19.66s-.35.34-.68.45-.73.2-1.23.28-1.15.12-1.96.12c-.74,0-1.38-.04-1.91-.12s-.95-.17-1.25-.28c-.31-.11-.52-.26-.65-.45s-.19-.41-.19-.66v-52.83h-.09l-21.38,53.06c-.09.22-.23.41-.4.56s-.42.29-.75.4-.72.19-1.17.23-.99.07-1.62.07c-.66,0-1.22-.03-1.69-.09s-.86-.15-1.17-.26-.55-.24-.73-.4-.29-.33-.35-.52l-20.44-53.06h-.05v52.83c0,.25-.06.47-.19.66s-.35.34-.68.45-.74.2-1.26.28c-.51.08-1.17.12-1.98.12s-1.42-.04-1.93-.12-.92-.17-1.23-.28c-.31-.11-.51-.26-.63-.45-.11-.19-.17-.41-.17-.66v-55.78c0-1.31.35-2.25,1.05-2.81.7-.56,1.48-.84,2.33-.84h4.95c1.01,0,1.9.09,2.67.28s1.43.48,2,.89,1.05.92,1.43,1.55.71,1.36,1,2.2l17.34,43.92h.23l18.05-43.78c.35-.94.73-1.73,1.14-2.39s.87-1.18,1.36-1.57,1.04-.67,1.64-.84c.6-.17,1.3-.26,2.09-.26h5.19c.48,0,.93.07,1.36.21.43.14.79.36,1.1.66.3.3.55.67.74,1.12.19.45.29,1.01.29,1.66v55.78Z"/>
    <path fill="#fff" d="M1780.58,684.97c0,.38-.12.66-.38.84s-.59.33-1.03.42-1.08.14-1.92.14-1.46-.05-1.95-.14-.84-.23-1.05-.42-.33-.47-.33-.84v-4.22c-1.84,1.97-3.9,3.5-6.16,4.59s-4.66,1.64-7.2,1.64c-2.22,0-4.23-.29-6.02-.87s-3.33-1.41-4.59-2.51-2.25-2.44-2.95-4.03-1.05-3.41-1.05-5.44c0-2.38.48-4.44,1.45-6.19s2.36-3.2,4.17-4.36,4.03-2.02,6.66-2.6,5.58-.87,8.86-.87h5.81v-3.28c0-1.62-.17-3.06-.52-4.31s-.9-2.29-1.66-3.12-1.76-1.45-2.98-1.88-2.72-.63-4.5-.63c-1.91,0-3.62.23-5.13.68s-2.84.95-3.98,1.5-2.09,1.05-2.86,1.5-1.34.68-1.71.68c-.25,0-.47-.06-.66-.19s-.35-.31-.49-.56-.24-.57-.3-.96-.09-.82-.09-1.29c0-.78.05-1.4.16-1.85s.38-.88.8-1.29,1.15-.88,2.18-1.43,2.22-1.05,3.56-1.5,2.81-.83,4.41-1.12,3.2-.45,4.83-.45c3.03,0,5.61.34,7.73,1.03s3.84,1.7,5.16,3.02,2.27,2.98,2.86,4.95.89,4.27.89,6.89v28.45ZM1772.89,665.71h-6.61c-2.12,0-3.97.18-5.53.54s-2.86.89-3.89,1.59-1.79,1.55-2.27,2.53-.73,2.12-.73,3.4c0,2.19.7,3.93,2.09,5.23s3.34,1.95,5.84,1.95c2.03,0,3.91-.52,5.65-1.55s3.55-2.61,5.46-4.73v-8.95Z"/>
    <path fill="#fff" d="M1819.44,645.5c0,.69-.02,1.27-.05,1.73s-.09.84-.19,1.1-.21.47-.35.61-.34.21-.59.21-.55-.07-.91-.21-.77-.28-1.22-.42-.96-.27-1.52-.4-1.17-.19-1.83-.19c-.78,0-1.55.16-2.3.47s-1.54.83-2.37,1.55-1.7,1.67-2.6,2.86-1.91,2.64-3,4.36v27.75c0,.25-.06.46-.19.63s-.33.32-.61.45-.67.22-1.17.28-1.14.09-1.92.09-1.38-.03-1.88-.09-.9-.16-1.2-.28-.5-.27-.61-.45-.16-.38-.16-.63v-42.19c0-.25.05-.46.14-.63s.28-.33.56-.47.64-.23,1.08-.28,1.02-.07,1.73-.07,1.26.02,1.71.07.8.14,1.05.28.43.3.54.47.16.38.16.63v6.14c1.16-1.69,2.24-3.06,3.26-4.12s1.98-1.9,2.88-2.51,1.8-1.03,2.7-1.27,1.79-.35,2.7-.35c.41,0,.87.02,1.38.07s1.05.13,1.62.26,1.07.27,1.52.42.77.31.96.47.31.3.38.45.12.32.16.54.08.54.09.96.02.99.02,1.71Z"/>
    <path fill="#fff" d="M1857.17,678.5c0,.53-.02.99-.05,1.38s-.09.72-.16.98-.17.5-.28.7-.36.5-.75.89-1.05.88-1.99,1.45-1.99,1.09-3.16,1.55-2.45.82-3.82,1.1-2.8.42-4.27.42c-3.03,0-5.72-.5-8.06-1.5s-4.3-2.46-5.88-4.38-2.78-4.28-3.61-7.08-1.24-6.02-1.24-9.68c0-4.16.51-7.73,1.52-10.71s2.41-5.43,4.17-7.34,3.84-3.32,6.23-4.24,4.98-1.38,7.76-1.38c1.34,0,2.65.12,3.91.38s2.43.58,3.49.98,2.01.88,2.84,1.41,1.43.98,1.8,1.36.63.67.77.89.26.48.35.77.16.63.19,1.01.05.84.05,1.41c0,1.22-.14,2.07-.42,2.55s-.62.73-1.03.73c-.47,0-1.01-.26-1.62-.77s-1.38-1.09-2.32-1.71-2.07-1.2-3.4-1.71-2.9-.77-4.71-.77c-3.72,0-6.57,1.43-8.55,4.29s-2.98,7.01-2.98,12.45c0,2.72.26,5.1.77,7.15s1.27,3.76,2.27,5.13,2.23,2.4,3.68,3.07,3.12,1.01,4.99,1.01,3.34-.28,4.69-.84,2.51-1.18,3.49-1.85,1.81-1.28,2.48-1.83,1.2-.82,1.57-.82c.22,0,.41.06.56.19s.29.34.4.63.19.67.23,1.12.07.99.07,1.62Z"/>
    <path fill="#fff" d="M1905.88,663.36c0,3.44-.45,6.6-1.36,9.49s-2.26,5.38-4.05,7.48-4.05,3.73-6.75,4.9-5.84,1.76-9.4,1.76-6.49-.52-9.07-1.55-4.73-2.53-6.45-4.5-3-4.36-3.84-7.17-1.27-6-1.27-9.56.45-6.6,1.34-9.49,2.23-5.38,4.03-7.48,4.04-3.72,6.73-4.88,5.83-1.73,9.42-1.73,6.49.52,9.07,1.55,4.73,2.53,6.45,4.5,3.01,4.36,3.87,7.17,1.29,5.98,1.29,9.52ZM1897.86,663.88c0-2.28-.21-4.44-.64-6.47s-1.13-3.81-2.11-5.34-2.3-2.74-3.97-3.63c-1.67-.89-3.75-1.34-6.24-1.34-2.3,0-4.28.41-5.94,1.22s-3.02,1.96-4.09,3.45-1.87,3.24-2.39,5.27c-.52,2.03-.78,4.25-.78,6.66s.21,4.48.64,6.52,1.13,3.8,2.13,5.32c.99,1.52,2.32,2.72,4,3.61,1.67.89,3.75,1.34,6.24,1.34,2.27,0,4.24-.41,5.91-1.22,1.67-.81,3.04-1.95,4.12-3.42s1.86-3.22,2.36-5.25c.5-2.03.76-4.27.76-6.7Z"/>
    <path fill="#fff" d="M1943.75,673.44c0,2.16-.4,4.08-1.2,5.77s-1.93,3.11-3.4,4.27-3.22,2.03-5.25,2.62-4.27.89-6.7.89c-1.5,0-2.93-.12-4.29-.35s-2.58-.53-3.66-.89-1.99-.73-2.74-1.12-1.3-.74-1.64-1.05-.59-.75-.75-1.31-.23-1.33-.23-2.3c0-.59.03-1.09.09-1.5s.14-.73.23-.98.23-.43.4-.54.37-.16.59-.16c.34,0,.85.21,1.52.63s1.5.88,2.48,1.38,2.15.96,3.49,1.38,2.89.63,4.64.63c1.31,0,2.5-.14,3.56-.42s1.98-.7,2.77-1.24,1.38-1.24,1.8-2.09.63-1.84.63-3-.3-2.19-.91-3-1.41-1.53-2.41-2.16-2.12-1.18-3.38-1.66-2.54-.99-3.87-1.52-2.62-1.13-3.89-1.8-2.4-1.49-3.4-2.46-1.8-2.12-2.41-3.47-.91-2.95-.91-4.83c0-1.66.32-3.24.96-4.76s1.6-2.84,2.88-3.98,2.88-2.05,4.8-2.74,4.16-1.03,6.73-1.03c1.12,0,2.25.09,3.38.28s2.14.42,3.05.7,1.68.59,2.32.91,1.12.62,1.45.87.55.47.66.66.19.4.23.63.09.52.14.87.07.77.07,1.27c0,.53-.02.99-.07,1.38s-.12.71-.23.96-.24.43-.4.54-.33.16-.52.16c-.28,0-.69-.17-1.22-.52s-1.22-.71-2.06-1.1-1.84-.76-2.98-1.1-2.45-.52-3.91-.52c-1.31,0-2.47.15-3.47.45s-1.82.72-2.46,1.27-1.12,1.2-1.45,1.95-.49,1.56-.49,2.44c0,1.22.31,2.24.94,3.07s1.44,1.55,2.44,2.18,2.14,1.19,3.42,1.69,2.59,1.02,3.91,1.55,2.64,1.12,3.94,1.78,2.45,1.45,3.45,2.39,1.8,2.06,2.41,3.38.91,2.88.91,4.69Z"/>
    <path fill="#fff" d="M2014.67,643.21c0,3.03-.5,5.77-1.5,8.2s-2.43,4.52-4.29,6.23-4.14,3.05-6.84,3.98-5.93,1.41-9.68,1.41h-6.89v21.84c0,.25-.07.47-.21.66s-.36.34-.66.45-.7.2-1.22.28-1.16.12-1.95.12-1.43-.04-1.95-.12-.93-.17-1.24-.28-.53-.26-.66-.45-.19-.41-.19-.66v-55.97c0-1.25.33-2.14.98-2.67s1.39-.8,2.2-.8h12.98c1.31,0,2.57.05,3.77.16s2.62.34,4.27.7,3.31,1.03,5.02,2.02,3.15,2.2,4.34,3.63,2.1,3.1,2.74,4.99.96,3.98.96,6.26ZM2006.19,643.86c0-2.47-.46-4.53-1.38-6.19s-2.06-2.89-3.42-3.7-2.77-1.33-4.22-1.55-2.87-.33-4.24-.33h-7.45v24.33h7.27c2.44,0,4.46-.31,6.07-.94s2.96-1.49,4.05-2.6,1.92-2.44,2.48-3.98.84-3.23.84-5.04Z"/>
    <path fill="#fff" d="M2063.42,663.36c0,3.44-.45,6.6-1.36,9.49s-2.26,5.38-4.05,7.48-4.05,3.73-6.75,4.9-5.84,1.76-9.4,1.76-6.49-.52-9.07-1.55-4.73-2.53-6.45-4.5-3-4.36-3.84-7.17-1.27-6-1.27-9.56.45-6.6,1.34-9.49,2.23-5.38,4.03-7.48,4.04-3.72,6.73-4.88,5.83-1.73,9.42-1.73,6.49.52,9.07,1.55,4.73,2.53,6.45,4.5,3.01,4.36,3.87,7.17,1.29,5.98,1.29,9.52ZM2055.41,663.88c0-2.28-.21-4.44-.64-6.47s-1.13-3.81-2.11-5.34-2.3-2.74-3.97-3.63c-1.67-.89-3.75-1.34-6.24-1.34-2.3,0-4.28.41-5.94,1.22s-3.02,1.96-4.09,3.45-1.87,3.24-2.39,5.27c-.52,2.03-.78,4.25-.78,6.66s.21,4.48.64,6.52,1.13,3.8,2.13,5.32c.99,1.52,2.32,2.72,4,3.61,1.67.89,3.75,1.34,6.24,1.34,2.27,0,4.24-.41,5.91-1.22,1.67-.81,3.04-1.95,4.12-3.42s1.86-3.22,2.36-5.25c.5-2.03.76-4.27.76-6.7Z"/>
    <path fill="#fff" d="M2099.47,645.5c0,.69-.02,1.27-.05,1.73s-.09.84-.19,1.1-.21.47-.35.61-.34.21-.59.21-.55-.07-.91-.21-.77-.28-1.22-.42-.96-.27-1.52-.4-1.17-.19-1.83-.19c-.78,0-1.55.16-2.3.47s-1.54.83-2.37,1.55-1.7,1.67-2.6,2.86-1.91,2.64-3,4.36v27.75c0,.25-.06.46-.19.63s-.33.32-.61.45-.67.22-1.17.28-1.14.09-1.92.09-1.38-.03-1.88-.09-.9-.16-1.2-.28-.5-.27-.61-.45-.16-.38-.16-.63v-42.19c0-.25.05-.46.14-.63s.28-.33.56-.47.64-.23,1.08-.28,1.02-.07,1.73-.07,1.26.02,1.71.07.8.14,1.05.28.43.3.54.47.16.38.16.63v6.14c1.16-1.69,2.24-3.06,3.26-4.12s1.98-1.9,2.88-2.51,1.8-1.03,2.7-1.27,1.79-.35,2.7-.35c.41,0,.87.02,1.38.07s1.05.13,1.62.26,1.07.27,1.52.42.77.31.96.47.31.3.38.45.12.32.16.54.08.54.09.96.02.99.02,1.71Z"/>
    <path fill="#fff" d="M2130.22,681.83c0,.91-.06,1.62-.19,2.16s-.31.92-.56,1.17-.62.48-1.12.7-1.07.4-1.71.54-1.32.26-2.04.35-1.44.14-2.16.14c-2.19,0-4.06-.29-5.62-.87s-2.84-1.45-3.84-2.62-1.73-2.66-2.18-4.45-.68-3.91-.68-6.35v-24.66h-5.91c-.47,0-.84-.25-1.12-.75s-.42-1.31-.42-2.44c0-.59.04-1.09.12-1.5s.18-.74.3-1.01.29-.45.49-.56.43-.16.68-.16h5.86v-10.03c0-.22.05-.42.16-.61s.31-.35.61-.49.7-.24,1.2-.3,1.12-.09,1.88-.09,1.42.03,1.92.09.89.16,1.17.3.48.3.61.49.19.39.19.61v10.03h10.83c.25,0,.47.05.66.16s.35.3.49.56.24.6.3,1.01.09.91.09,1.5c0,1.12-.14,1.94-.42,2.44s-.66.75-1.12.75h-10.83v23.53c0,2.91.43,5.1,1.29,6.59s2.4,2.23,4.62,2.23c.72,0,1.36-.07,1.92-.21s1.06-.29,1.5-.45.81-.3,1.12-.45.59-.21.84-.21c.16,0,.3.04.45.12s.25.23.33.45.15.52.21.89.09.84.09,1.41Z"/>
    <path fill="#fff" d="M2178.73,663.36c0,3.44-.45,6.6-1.36,9.49s-2.26,5.38-4.05,7.48-4.05,3.73-6.75,4.9-5.84,1.76-9.4,1.76-6.49-.52-9.07-1.55-4.73-2.53-6.45-4.5-3-4.36-3.84-7.17-1.27-6-1.27-9.56.45-6.6,1.34-9.49,2.23-5.38,4.03-7.48,4.04-3.72,6.73-4.88,5.83-1.73,9.42-1.73,6.49.52,9.07,1.55,4.73,2.53,6.45,4.5,3.01,4.36,3.87,7.17,1.29,5.98,1.29,9.52ZM2170.72,663.88c0-2.28-.21-4.44-.64-6.47s-1.13-3.81-2.11-5.34-2.3-2.74-3.97-3.63c-1.67-.89-3.75-1.34-6.24-1.34-2.3,0-4.28.41-5.94,1.22s-3.02,1.96-4.09,3.45-1.87,3.24-2.39,5.27c-.52,2.03-.78,4.25-.78,6.66s.21,4.48.64,6.52,1.13,3.8,2.13,5.32c.99,1.52,2.32,2.72,4,3.61,1.67.89,3.75,1.34,6.24,1.34,2.27,0,4.24-.41,5.91-1.22,1.67-.81,3.04-1.95,4.12-3.42s1.86-3.22,2.36-5.25c.5-2.03.76-4.27.76-6.7Z"/>
  </g>
  <g>
    <path fill="#fff" d="M1614.63,534.44c0,.55-.12,1.03-.36,1.44-.24.41-.65.74-1.23.97-.58.24-1.35.43-2.31.56-.96.14-2.12.21-3.49.21-1.44,0-2.63-.07-3.59-.21-.96-.14-1.74-.33-2.36-.56s-1.06-.56-1.33-.97c-.27-.41-.41-.89-.41-1.44v-12.2c-4.85,5.26-9.9,9.37-15.12,12.3-5.23,2.94-10.96,4.41-17.18,4.41-6.77,0-12.54-1.32-17.33-3.95-4.79-2.63-8.67-6.19-11.64-10.66-2.97-4.48-5.15-9.74-6.51-15.79-1.37-6.05-2.05-12.42-2.05-19.12,0-7.93.85-15.09,2.56-21.48,1.71-6.39,4.24-11.84,7.59-16.35,3.35-4.51,7.5-7.98,12.46-10.41,4.96-2.43,10.68-3.64,17.18-3.64,5.4,0,10.34,1.18,14.82,3.54,4.48,2.36,8.9,5.83,13.28,10.41v-53.63c0-.48.12-.94.36-1.38.24-.44.7-.79,1.38-1.03.68-.24,1.55-.44,2.61-.62,1.06-.17,2.41-.26,4.05-.26s3.11.09,4.2.26c1.09.17,1.95.38,2.56.62.62.24,1.08.58,1.38,1.03.31.45.46.91.46,1.38v136.58ZM1597.61,469.53c-4.58-5.67-9.01-10-13.28-12.97-4.27-2.97-8.73-4.46-13.38-4.46-4.31,0-7.96,1.03-10.97,3.08-3.01,2.05-5.45,4.75-7.33,8.1-1.88,3.35-3.25,7.14-4.1,11.38-.86,4.24-1.28,8.55-1.28,12.92,0,4.65.36,9.19,1.08,13.64.72,4.44,1.96,8.39,3.74,11.84,1.78,3.45,4.13,6.22,7.08,8.31,2.94,2.09,6.63,3.13,11.07,3.13,2.26,0,4.42-.31,6.51-.92,2.08-.62,4.22-1.64,6.41-3.08,2.19-1.44,4.48-3.3,6.87-5.59,2.39-2.29,4.92-5.11,7.59-8.46v-36.91Z"/>
    <path fill="#fff" d="M1731.73,487.27c0,7.52-.99,14.44-2.97,20.76-1.98,6.32-4.94,11.78-8.87,16.35-3.93,4.58-8.85,8.15-14.77,10.72-5.91,2.56-12.77,3.85-20.56,3.85s-14.2-1.13-19.84-3.38c-5.64-2.26-10.34-5.54-14.1-9.84-3.76-4.31-6.56-9.54-8.41-15.69s-2.77-13.12-2.77-20.92.97-14.44,2.92-20.76c1.95-6.32,4.89-11.77,8.82-16.35,3.93-4.58,8.83-8.13,14.71-10.66,5.88-2.53,12.75-3.79,20.61-3.79s14.2,1.13,19.84,3.38c5.64,2.26,10.34,5.54,14.1,9.84,3.76,4.31,6.58,9.54,8.46,15.69,1.88,6.15,2.82,13.09,2.82,20.82ZM1714.2,488.4c0-4.99-.47-9.71-1.4-14.15-.93-4.44-2.47-8.34-4.6-11.69-2.14-3.35-5.04-6-8.69-7.95s-8.21-2.92-13.66-2.92c-5.04,0-9.36.89-12.99,2.67-3.62,1.78-6.6,4.29-8.95,7.54-2.35,3.25-4.09,7.09-5.22,11.54-1.14,4.44-1.71,9.3-1.71,14.56s.46,9.81,1.4,14.25c.93,4.44,2.48,8.32,4.66,11.64,2.17,3.32,5.09,5.95,8.74,7.9,3.66,1.95,8.21,2.92,13.66,2.92,4.97,0,9.28-.89,12.93-2.67,3.66-1.78,6.66-4.27,9-7.49,2.35-3.21,4.07-7.04,5.17-11.48,1.1-4.44,1.66-9.33,1.66-14.66Z"/>
    <path fill="#fff" d="M1804.64,527.67c0,1.98-.14,3.56-.41,4.72-.27,1.16-.68,2.02-1.23,2.56-.55.55-1.37,1.06-2.46,1.54-1.09.48-2.34.87-3.74,1.18-1.4.31-2.89.56-4.46.77-1.57.21-3.15.31-4.72.31-4.79,0-8.89-.63-12.3-1.9-3.42-1.26-6.22-3.18-8.41-5.74-2.19-2.56-3.78-5.81-4.77-9.74-.99-3.93-1.49-8.56-1.49-13.89v-53.94h-12.92c-1.03,0-1.85-.55-2.46-1.64-.62-1.09-.92-2.87-.92-5.33,0-1.3.08-2.39.26-3.28.17-.89.39-1.62.67-2.2.27-.58.63-.99,1.08-1.23.44-.24.94-.36,1.49-.36h12.82v-21.94c0-.48.12-.92.36-1.33.24-.41.68-.77,1.33-1.08.65-.31,1.52-.53,2.62-.67,1.09-.14,2.46-.21,4.1-.21s3.11.07,4.2.21c1.09.14,1.95.36,2.56.67s1.06.67,1.33,1.08c.27.41.41.86.41,1.33v21.94h23.69c.55,0,1.03.12,1.44.36.41.24.77.65,1.08,1.23.31.58.53,1.32.67,2.2.14.89.21,1.98.21,3.28,0,2.46-.31,4.24-.92,5.33-.62,1.09-1.44,1.64-2.46,1.64h-23.69v51.47c0,6.36.94,11.16,2.82,14.41,1.88,3.25,5.25,4.87,10.1,4.87,1.57,0,2.97-.15,4.2-.46s2.32-.63,3.28-.97c.96-.34,1.78-.67,2.46-.97.68-.31,1.3-.46,1.85-.46.34,0,.67.09.97.26.31.17.55.5.72.97.17.48.32,1.13.46,1.95.14.82.21,1.85.21,3.08Z"/>
    <path fill="#fff" d="M1903.48,484.29c0,2.67-.67,4.56-2.01,5.69-1.34,1.13-2.87,1.69-4.58,1.69h-60.78c0,5.13.51,9.74,1.54,13.84,1.03,4.1,2.75,7.62,5.15,10.56,2.4,2.94,5.53,5.2,9.38,6.77,3.85,1.57,8.55,2.36,14.12,2.36,4.4,0,8.31-.36,11.75-1.08,3.43-.72,6.41-1.52,8.91-2.41,2.51-.89,4.57-1.69,6.18-2.41,1.61-.72,2.83-1.08,3.66-1.08.48,0,.91.12,1.29.36.38.24.67.6.88,1.08.21.48.36,1.15.46,2,.1.86.16,1.9.16,3.13,0,.89-.04,1.66-.1,2.31-.07.65-.15,1.23-.26,1.74-.1.51-.27.97-.51,1.38-.24.41-.55.8-.92,1.18-.38.38-1.49.99-3.33,1.85-1.85.86-4.24,1.69-7.18,2.51-2.94.82-6.34,1.55-10.2,2.2-3.86.65-7.98.97-12.36.97-7.59,0-14.24-1.06-19.94-3.18-5.71-2.12-10.51-5.26-14.41-9.43-3.9-4.17-6.84-9.4-8.82-15.69-1.98-6.29-2.97-13.6-2.97-21.94s1.03-15.06,3.08-21.38c2.05-6.32,5.01-11.69,8.87-16.1,3.86-4.41,8.53-7.79,14-10.15,5.47-2.36,11.59-3.54,18.35-3.54,7.25,0,13.42,1.16,18.51,3.49,5.09,2.32,9.28,5.45,12.56,9.38,3.28,3.93,5.69,8.55,7.23,13.84,1.54,5.3,2.31,10.96,2.31,16.97v3.08ZM1886.46,479.27c.21-8.89-1.77-15.86-5.93-20.92-4.16-5.06-10.33-7.59-18.52-7.59-4.2,0-7.88.79-11.04,2.36-3.17,1.57-5.81,3.66-7.95,6.25-2.13,2.6-3.78,5.62-4.95,9.07-1.17,3.45-1.82,7.06-1.96,10.82h50.35Z"/>
    <path fill="#fff" d="M2008.69,534.44c0,.55-.14,1.01-.41,1.38-.27.38-.72.7-1.33.97s-1.47.48-2.56.62c-1.09.14-2.46.21-4.1.21s-3.11-.07-4.2-.21c-1.09-.14-1.95-.34-2.56-.62s-1.06-.6-1.33-.97c-.27-.38-.41-.84-.41-1.38v-54.04c0-5.26-.41-9.5-1.23-12.71-.82-3.21-2.02-5.98-3.59-8.31-1.57-2.32-3.61-4.1-6.1-5.33-2.5-1.23-5.38-1.85-8.66-1.85-4.24,0-8.48,1.5-12.71,4.51-4.24,3.01-8.68,7.42-13.33,13.23v64.5c0,.55-.14,1.01-.41,1.38-.27.38-.72.7-1.33.97s-1.47.48-2.56.62c-1.09.14-2.5.21-4.2.21s-3.01-.07-4.1-.21c-1.09-.14-1.97-.34-2.61-.62-.65-.27-1.09-.6-1.33-.97-.24-.38-.36-.84-.36-1.38v-92.29c0-.55.1-1.01.31-1.38.21-.38.62-.72,1.23-1.03s1.4-.51,2.36-.62c.96-.1,2.22-.15,3.79-.15s2.75.05,3.74.15c.99.1,1.76.31,2.31.62.55.31.94.65,1.18,1.03.24.38.36.84.36,1.38v12.2c5.19-5.81,10.37-10.06,15.54-12.77,5.16-2.7,10.37-4.05,15.64-4.05,6.15,0,11.33,1.04,15.54,3.13,4.2,2.09,7.6,4.87,10.2,8.36,2.6,3.49,4.46,7.57,5.59,12.25,1.13,4.68,1.69,10.31,1.69,16.87v56.29Z"/>
    <path fill="#fff" d="M2111.74,441.95c0,.27-.02.56-.05.87-.04.31-.09.63-.15.97-.07.34-.15.72-.26,1.13-.1.41-.22.86-.36,1.33l-31.48,87.67c-.27.75-.63,1.37-1.08,1.85-.45.48-1.11.86-2,1.13-.89.27-2.02.46-3.38.56-1.37.1-3.08.15-5.13.15s-3.76-.07-5.13-.21c-1.37-.14-2.48-.34-3.33-.62-.86-.27-1.52-.65-2-1.13-.48-.48-.86-1.06-1.13-1.74l-31.38-87.67c-.27-.82-.5-1.54-.67-2.15-.17-.62-.27-1.08-.31-1.38-.04-.31-.05-.56-.05-.77,0-.55.14-1.03.41-1.44.27-.41.73-.73,1.38-.97.65-.24,1.5-.39,2.56-.46,1.06-.07,2.38-.1,3.95-.1,1.98,0,3.57.05,4.77.15,1.19.1,2.12.29,2.77.56.65.27,1.13.62,1.44,1.03.31.41.6.92.87,1.54l26.04,76.08.41,1.23.31-1.23,25.74-76.08c.14-.62.38-1.13.72-1.54.34-.41.84-.75,1.49-1.03.65-.27,1.54-.46,2.67-.56,1.13-.1,2.62-.15,4.46-.15,1.57,0,2.87.04,3.9.1,1.03.07,1.83.24,2.41.51.58.27.99.6,1.23.97.24.38.36.84.36,1.38Z"/>
    <path fill="#fff" d="M2200.85,532.49c.55.96.82,1.76.82,2.41s-.33,1.18-.97,1.59c-.65.41-1.64.7-2.97.87-1.33.17-3.06.26-5.18.26s-3.68-.05-4.87-.15c-1.2-.1-2.15-.27-2.87-.51-.72-.24-1.27-.55-1.64-.92-.38-.38-.7-.8-.97-1.28l-22.15-36.61-22.05,36.61c-.27.48-.6.91-.97,1.28-.38.38-.92.68-1.64.92-.72.24-1.66.41-2.82.51-1.16.1-2.7.15-4.61.15s-3.61-.09-4.87-.26c-1.27-.17-2.19-.46-2.77-.87-.58-.41-.86-.94-.82-1.59.03-.65.36-1.45.97-2.41l28.71-45.01-27.17-43.37c-.55-.96-.84-1.76-.87-2.41-.04-.65.27-1.2.92-1.64.65-.44,1.64-.73,2.97-.87,1.33-.14,3.09-.21,5.28-.21,1.98,0,3.57.05,4.77.15,1.19.1,2.13.26,2.82.46.68.21,1.2.48,1.54.82.34.34.65.75.92,1.23l21.02,34.35,21.33-34.35c.27-.41.58-.79.92-1.13.34-.34.8-.63,1.38-.87.58-.24,1.4-.41,2.46-.51,1.06-.1,2.51-.15,4.36-.15,1.98,0,3.6.07,4.87.21,1.26.14,2.21.39,2.82.77.62.38.89.91.82,1.59-.07.68-.41,1.54-1.03,2.56l-26.97,42.86,28.51,45.53Z"/>
  </g>
  <g>
    <path fill="#fff" d="M148.4,1092.23c0,.2-.01.37-.03.52-.02.15-.05.26-.1.35-.05.09-.1.15-.17.2-.07.04-.14.06-.23.06h-5.69v17.53c0,.08-.02.16-.06.22-.04.06-.11.11-.22.15-.1.04-.24.07-.41.09-.17.03-.39.04-.65.04s-.46-.01-.64-.04c-.18-.03-.32-.06-.42-.09-.1-.04-.18-.09-.22-.15-.04-.06-.06-.13-.06-.22v-17.53h-5.69c-.08,0-.16-.02-.23-.06-.07-.04-.12-.11-.16-.2-.04-.09-.08-.21-.1-.35-.03-.15-.04-.32-.04-.52s.01-.37.04-.52c.03-.15.06-.27.1-.37.04-.09.1-.16.16-.2.07-.04.14-.06.23-.06h14.06c.08,0,.16.02.23.06.07.04.12.11.17.2s.08.22.1.37c.02.15.03.33.03.52Z"/>
    <path fill="#fff" d="M163.13,1110.9c0,.08-.02.15-.06.21-.04.06-.11.11-.2.15s-.22.07-.39.09c-.17.02-.38.03-.62.03s-.47-.01-.64-.03c-.17-.02-.3-.05-.39-.09s-.16-.09-.2-.15c-.04-.06-.06-.13-.06-.21v-8.23c0-.8-.06-1.45-.19-1.94-.12-.49-.31-.91-.55-1.27-.24-.35-.55-.62-.93-.81-.38-.19-.82-.28-1.32-.28-.65,0-1.29.23-1.94.69-.65.46-1.32,1.13-2.03,2.02v9.83c0,.08-.02.15-.06.21-.04.06-.11.11-.2.15s-.22.07-.39.09c-.17.02-.38.03-.64.03s-.46-.01-.62-.03c-.17-.02-.3-.05-.4-.09-.1-.04-.17-.09-.2-.15-.04-.06-.05-.13-.05-.21v-20.88c0-.08.02-.16.05-.22.04-.06.1-.11.2-.16.1-.04.23-.07.4-.09.17-.02.38-.03.62-.03s.47.01.64.03c.17.02.3.05.39.09.09.04.16.09.2.16.04.06.06.14.06.22v8.42c.74-.78,1.48-1.36,2.23-1.74.75-.38,1.5-.57,2.27-.57.94,0,1.73.16,2.37.48.64.32,1.16.74,1.55,1.27.4.53.68,1.15.85,1.87.17.71.26,1.58.26,2.59v8.56Z"/>
    <path fill="#fff" d="M179.84,1103.26c0,.41-.1.7-.31.87s-.44.26-.7.26h-9.26c0,.78.08,1.48.24,2.11s.42,1.16.79,1.61c.37.45.84.79,1.43,1.03.59.24,1.3.36,2.15.36.67,0,1.27-.05,1.79-.16s.98-.23,1.36-.37c.38-.13.7-.26.94-.37s.43-.16.56-.16c.07,0,.14.02.2.05.06.04.1.09.13.16.03.07.06.17.07.3.02.13.02.29.02.48,0,.14,0,.25-.02.35-.01.1-.02.19-.04.27s-.04.15-.08.21c-.04.06-.08.12-.14.18-.06.06-.23.15-.51.28-.28.13-.65.26-1.09.38-.45.12-.97.24-1.55.34-.59.1-1.22.15-1.88.15-1.16,0-2.17-.16-3.04-.48-.87-.32-1.6-.8-2.2-1.44-.59-.63-1.04-1.43-1.34-2.39-.3-.96-.45-2.07-.45-3.34s.16-2.29.47-3.26c.31-.96.76-1.78,1.35-2.45.59-.67,1.3-1.19,2.13-1.55.83-.36,1.77-.54,2.8-.54,1.1,0,2.04.18,2.82.53.78.35,1.41.83,1.91,1.43.5.6.87,1.3,1.1,2.11.23.81.35,1.67.35,2.59v.47ZM177.24,1102.5c.03-1.35-.27-2.42-.9-3.19-.63-.77-1.57-1.16-2.82-1.16-.64,0-1.2.12-1.68.36-.48.24-.89.56-1.21.95-.32.4-.58.86-.75,1.38-.18.53-.28,1.08-.3,1.65h7.67Z"/>
    <path fill="#fff" d="M203.71,1097c0,1.01-.17,1.92-.5,2.73-.33.81-.81,1.51-1.43,2.08-.62.57-1.38,1.02-2.28,1.33-.9.31-1.98.47-3.23.47h-2.3v7.28c0,.08-.02.16-.07.22s-.12.11-.22.15c-.1.04-.23.07-.41.09-.17.03-.39.04-.65.04s-.48-.01-.65-.04c-.17-.03-.31-.06-.41-.09-.1-.04-.18-.09-.22-.15-.04-.06-.06-.13-.06-.22v-18.66c0-.42.11-.71.33-.89.22-.18.46-.27.73-.27h4.33c.44,0,.86.02,1.26.05.4.04.88.12,1.42.23.55.12,1.1.34,1.67.67.57.33,1.05.73,1.45,1.21.4.48.7,1.03.91,1.66.21.63.32,1.33.32,2.09ZM200.88,1097.22c0-.82-.15-1.51-.46-2.06-.31-.55-.69-.96-1.14-1.23-.45-.27-.92-.44-1.41-.52-.48-.07-.96-.11-1.41-.11h-2.48v8.11h2.42c.81,0,1.49-.1,2.02-.31.54-.21.99-.5,1.35-.87.36-.37.64-.81.83-1.33s.28-1.08.28-1.68Z"/>
    <path fill="#fff" d="M222.38,1110.89c0,.08-.02.16-.06.22-.04.06-.11.11-.22.15-.1.04-.24.07-.41.09-.17.03-.38.04-.63.04-.27,0-.49-.01-.66-.04-.17-.03-.3-.06-.41-.09-.1-.04-.18-.09-.22-.15-.04-.06-.06-.13-.06-.22v-8.97h-9.2v8.97c0,.08-.02.16-.06.22-.04.06-.11.11-.22.15-.1.04-.24.07-.41.09-.17.03-.39.04-.65.04s-.46-.01-.64-.04c-.18-.03-.32-.06-.42-.09-.1-.04-.18-.09-.22-.15-.04-.06-.06-.13-.06-.22v-19.41c0-.08.02-.16.06-.22.04-.06.11-.11.22-.15.1-.04.24-.07.42-.09.18-.03.39-.04.64-.04s.48.01.65.04c.17.03.31.06.41.09.1.04.18.09.22.15.04.06.06.14.06.22v8.09h9.2v-8.09c0-.08.02-.16.06-.22.04-.06.11-.11.22-.15.1-.04.24-.07.41-.09.17-.03.39-.04.66-.04.25,0,.46.01.63.04.17.03.31.06.41.09.1.04.18.09.22.15.04.06.06.14.06.22v19.41Z"/>
    <path fill="#fff" d="M240.18,1097c0,1.01-.17,1.92-.5,2.73-.33.81-.81,1.51-1.43,2.08-.62.57-1.38,1.02-2.28,1.33-.9.31-1.98.47-3.23.47h-2.3v7.28c0,.08-.02.16-.07.22s-.12.11-.22.15c-.1.04-.23.07-.41.09-.17.03-.39.04-.65.04s-.48-.01-.65-.04c-.17-.03-.31-.06-.41-.09-.1-.04-.18-.09-.22-.15-.04-.06-.06-.13-.06-.22v-18.66c0-.42.11-.71.33-.89.22-.18.46-.27.73-.27h4.33c.44,0,.86.02,1.26.05.4.04.88.12,1.42.23.55.12,1.1.34,1.67.67.57.33,1.05.73,1.45,1.21.4.48.7,1.03.91,1.66.21.63.32,1.33.32,2.09ZM237.35,1097.22c0-.82-.15-1.51-.46-2.06-.31-.55-.69-.96-1.14-1.23-.45-.27-.92-.44-1.41-.52-.48-.07-.96-.11-1.41-.11h-2.48v8.11h2.42c.81,0,1.49-.1,2.02-.31.54-.21.99-.5,1.35-.87.36-.37.64-.81.83-1.33s.28-1.08.28-1.68Z"/>
    <path fill="#fff" d="M262.01,1110.12c0,.21-.01.38-.03.52-.02.14-.05.26-.1.36-.05.1-.1.17-.17.22-.07.05-.15.07-.24.07h-8.94c-.24,0-.47-.08-.68-.24-.21-.16-.32-.45-.32-.85v-18.72c0-.08.02-.16.06-.22.04-.06.11-.11.22-.15.1-.04.24-.07.42-.09.18-.03.39-.04.64-.04s.48.01.65.04c.17.03.31.06.41.09.1.04.18.09.22.15.04.06.06.14.06.22v17.48h7.25c.09,0,.17.02.24.07.07.05.12.12.17.2.05.09.08.21.1.35.02.15.03.32.03.53Z"/>
    <path fill="#fff" d="M277.76,1103.72c0,1.15-.15,2.2-.45,3.16-.3.96-.75,1.79-1.35,2.49-.6.7-1.35,1.24-2.25,1.63-.9.39-1.95.59-3.13.59s-2.16-.17-3.02-.52-1.58-.84-2.15-1.5c-.57-.66-1-1.45-1.28-2.39s-.42-2-.42-3.19.15-2.2.45-3.16c.3-.96.74-1.79,1.34-2.49.6-.7,1.35-1.24,2.24-1.62.9-.38,1.94-.58,3.14-.58s2.16.17,3.02.52,1.58.84,2.15,1.5c.57.66,1,1.45,1.29,2.39.29.94.43,2,.43,3.17ZM275.09,1103.89c0-.76-.07-1.48-.21-2.16-.14-.68-.38-1.27-.7-1.78-.33-.51-.77-.91-1.32-1.21-.56-.3-1.25-.45-2.08-.45-.77,0-1.43.14-1.98.41-.55.27-1.01.65-1.36,1.15-.36.5-.62,1.08-.8,1.76-.17.68-.26,1.42-.26,2.22s.07,1.5.21,2.17c.14.68.38,1.27.71,1.77.33.51.77.91,1.33,1.2s1.25.45,2.08.45c.76,0,1.41-.13,1.97-.41.56-.27,1.01-.65,1.37-1.14.36-.49.62-1.07.79-1.75.17-.68.25-1.42.25-2.23Z"/>
    <path fill="#fff" d="M293.3,1097.48c0,.37-.05.63-.15.79-.1.16-.23.24-.38.24h-2.02c.36.38.62.79.77,1.24.15.45.22.92.22,1.41,0,.81-.13,1.53-.39,2.16-.26.62-.63,1.15-1.12,1.59-.48.43-1.06.76-1.73.99-.67.23-1.41.34-2.22.34-.57,0-1.12-.08-1.63-.23-.52-.15-.91-.34-1.2-.57-.19.19-.34.4-.46.64s-.18.52-.18.83c0,.37.17.67.51.91.34.24.79.37,1.35.39l3.67.16c.7.02,1.34.12,1.92.29.58.17,1.09.42,1.52.73.43.32.76.71,1,1.17.24.46.36,1,.36,1.62,0,.65-.14,1.26-.41,1.84-.27.58-.69,1.1-1.24,1.54-.56.44-1.27.79-2.13,1.05-.86.25-1.89.38-3.06.38s-2.1-.1-2.9-.29c-.8-.19-1.45-.46-1.96-.79-.51-.33-.88-.73-1.11-1.2-.23-.46-.34-.97-.34-1.51,0-.34.04-.68.12-1,.08-.32.21-.63.38-.92s.39-.57.64-.84c.25-.27.55-.53.88-.79-.51-.26-.89-.59-1.13-.98-.25-.4-.37-.82-.37-1.28,0-.63.13-1.2.39-1.7.26-.5.58-.95.97-1.34-.32-.38-.58-.82-.77-1.3s-.28-1.07-.28-1.76c0-.8.14-1.52.41-2.16.27-.63.65-1.17,1.12-1.61.48-.44,1.05-.77,1.73-1.01s1.4-.35,2.2-.35c.43,0,.83.02,1.2.07.37.05.72.11,1.04.2h4.25c.18,0,.31.09.4.26.09.17.13.44.13.79ZM290.57,1112.33c0-.6-.25-1.07-.74-1.4-.5-.33-1.16-.5-2.01-.52l-3.64-.12c-.33.26-.61.51-.82.74-.21.23-.38.46-.51.67-.12.21-.21.42-.26.63-.05.21-.07.42-.07.64,0,.68.34,1.19,1.03,1.54.69.35,1.65.52,2.88.52.78,0,1.43-.08,1.96-.23.53-.15.95-.35,1.27-.6.32-.25.55-.54.7-.86.14-.32.21-.66.21-1.02ZM289.27,1101.18c0-.96-.26-1.71-.79-2.24-.53-.54-1.27-.8-2.24-.8-.5,0-.94.08-1.3.25-.37.17-.68.4-.92.69-.25.29-.43.63-.55,1.01-.12.38-.18.78-.18,1.2,0,.93.26,1.66.79,2.19.53.53,1.26.8,2.21.8.51,0,.95-.08,1.33-.24.38-.16.68-.38.93-.67.24-.29.43-.62.55-.99.12-.38.18-.77.18-1.17Z"/>
    <path fill="#fff" d="M309.48,1103.72c0,1.15-.15,2.2-.45,3.16-.3.96-.75,1.79-1.35,2.49-.6.7-1.35,1.24-2.25,1.63-.9.39-1.95.59-3.13.59s-2.16-.17-3.02-.52-1.58-.84-2.15-1.5c-.57-.66-1-1.45-1.28-2.39s-.42-2-.42-3.19.15-2.2.45-3.16c.3-.96.74-1.79,1.34-2.49.6-.7,1.35-1.24,2.24-1.62.9-.38,1.94-.58,3.14-.58s2.16.17,3.02.52,1.58.84,2.15,1.5c.57.66,1,1.45,1.29,2.39.29.94.43,2,.43,3.17ZM306.8,1103.89c0-.76-.07-1.48-.21-2.16-.14-.68-.38-1.27-.7-1.78-.33-.51-.77-.91-1.32-1.21-.56-.3-1.25-.45-2.08-.45-.77,0-1.43.14-1.98.41-.55.27-1.01.65-1.36,1.15-.36.5-.62,1.08-.8,1.76-.17.68-.26,1.42-.26,2.22s.07,1.5.21,2.17c.14.68.38,1.27.71,1.77.33.51.77.91,1.33,1.2s1.25.45,2.08.45c.76,0,1.41-.13,1.97-.41.56-.27,1.01-.65,1.37-1.14.36-.49.62-1.07.79-1.75.17-.68.25-1.42.25-2.23Z"/>
    <path fill="#fff" d="M323.38,1092.09c0,.6-.11,1.02-.34,1.23-.23.22-.65.33-1.27.33s-1.02-.11-1.24-.32c-.22-.21-.34-.62-.34-1.21s.11-1.02.34-1.23c.23-.22.65-.33,1.27-.33s1.02.11,1.24.32c.22.21.34.62.34,1.21ZM323.09,1110.9c0,.08-.02.15-.06.21-.04.06-.11.11-.2.15s-.22.07-.39.09c-.17.02-.38.03-.64.03s-.46-.01-.62-.03c-.17-.02-.3-.05-.4-.09-.1-.04-.17-.09-.2-.15-.04-.06-.05-.13-.05-.21v-14.06c0-.07.02-.14.05-.2.04-.06.1-.11.2-.16.1-.04.23-.07.4-.09.17-.02.38-.03.62-.03s.47.01.64.03c.17.02.3.05.39.09.09.04.16.09.2.16.04.06.06.13.06.2v14.06Z"/>
    <path fill="#fff" d="M336.68,1107.08c0,.72-.13,1.36-.4,1.92s-.64,1.04-1.13,1.42c-.49.39-1.07.68-1.75.88-.68.2-1.42.3-2.23.3-.5,0-.98-.04-1.43-.12s-.86-.18-1.22-.3-.66-.24-.91-.38c-.25-.13-.43-.25-.55-.35-.11-.1-.2-.25-.25-.44-.05-.19-.08-.44-.08-.77,0-.2.01-.36.03-.5.02-.13.05-.24.08-.33.03-.08.08-.14.13-.18.06-.04.12-.05.2-.05.11,0,.28.07.51.21.22.14.5.29.83.46.33.17.72.32,1.16.46.45.14.96.21,1.55.21.44,0,.83-.05,1.19-.14.35-.09.66-.23.92-.41.26-.18.46-.41.6-.7s.21-.61.21-1-.1-.73-.3-1c-.2-.27-.47-.51-.8-.72-.33-.21-.71-.39-1.12-.55-.42-.16-.85-.33-1.29-.51-.44-.18-.88-.38-1.3-.6-.42-.22-.8-.5-1.13-.82-.33-.32-.6-.71-.8-1.16-.2-.45-.3-.98-.3-1.61,0-.55.11-1.08.32-1.59.21-.5.53-.95.96-1.33.43-.38.96-.68,1.6-.91.64-.23,1.39-.34,2.24-.34.38,0,.75.03,1.12.09s.71.14,1.02.23c.3.09.56.2.77.3.21.11.38.21.48.29.11.08.18.16.22.22.04.06.06.13.08.21s.03.17.05.29c.02.12.02.26.02.42,0,.18,0,.33-.02.46-.02.13-.04.24-.08.32-.04.08-.08.14-.13.18-.05.04-.11.05-.17.05-.09,0-.23-.06-.41-.17-.18-.11-.41-.24-.69-.37-.28-.13-.61-.25-.99-.37-.38-.11-.82-.17-1.3-.17-.44,0-.82.05-1.16.15-.33.1-.61.24-.82.42-.21.18-.38.4-.48.65s-.16.52-.16.81c0,.41.1.75.31,1.02.21.28.48.52.81.73.33.21.71.4,1.14.56.43.17.86.34,1.3.52.44.18.88.38,1.31.59.43.22.81.48,1.15.8.33.31.6.69.8,1.12s.3.96.3,1.56Z"/>
    <path fill="#fff" d="M360.54,1103.68c0,1.22-.13,2.32-.4,3.29-.27.97-.66,1.8-1.17,2.49s-1.15,1.21-1.9,1.58-1.61.55-2.58.55c-.45,0-.86-.04-1.24-.13-.38-.09-.75-.23-1.12-.43-.36-.2-.73-.45-1.09-.75-.36-.3-.75-.67-1.16-1.09v1.72c0,.08-.02.16-.06.22-.04.06-.11.11-.2.15s-.21.06-.35.09c-.14.02-.32.03-.54.03s-.39-.01-.53-.03c-.15-.02-.27-.05-.36-.09s-.16-.09-.19-.15-.05-.13-.05-.22v-20.88c0-.08.02-.16.05-.22.04-.06.1-.11.2-.16.1-.04.23-.07.4-.09.17-.02.38-.03.62-.03s.47.01.64.03c.17.02.3.05.39.09.09.04.16.09.2.16.04.06.06.14.06.22v8.42c.42-.43.82-.79,1.21-1.08.39-.29.77-.53,1.15-.71.38-.18.75-.31,1.12-.4.38-.08.77-.12,1.19-.12,1.02,0,1.89.2,2.62.61.72.41,1.31.95,1.77,1.63.45.68.78,1.48.99,2.4.21.92.31,1.89.31,2.91ZM357.87,1103.98c0-.72-.06-1.42-.17-2.09-.11-.68-.3-1.28-.57-1.8-.27-.52-.63-.94-1.08-1.26-.45-.32-1.01-.48-1.68-.48-.34,0-.67.05-.99.14-.33.09-.66.25-.99.47-.34.22-.68.5-1.05.84s-.75.78-1.16,1.3v5.61c.71.87,1.39,1.52,2.04,1.98.65.45,1.33.68,2.03.68.65,0,1.21-.16,1.67-.47.46-.31.84-.73,1.12-1.24s.5-1.09.63-1.73c.13-.64.2-1.29.2-1.95Z"/>
    <path fill="#fff" d="M370.66,1111.29l-1.88,5.17c-.06.17-.22.29-.48.38-.26.09-.64.13-1.16.13-.27,0-.49-.01-.66-.04-.17-.03-.29-.07-.38-.13-.09-.06-.14-.15-.15-.25-.01-.1.02-.23.08-.38l1.94-4.89c-.09-.04-.18-.11-.27-.2-.08-.09-.14-.19-.17-.3l-5.02-13.44c-.08-.22-.12-.39-.12-.52s.04-.22.12-.3c.08-.07.22-.12.41-.15.19-.03.44-.04.75-.04s.56,0,.73.02c.18.02.32.04.42.09.1.04.18.1.23.18s.1.19.15.32l4.02,11.28h.05l3.88-11.34c.06-.2.14-.33.23-.38.09-.06.22-.1.4-.12.18-.03.43-.04.77-.04.29,0,.53.01.72.04.19.03.33.08.41.15.09.07.13.17.13.3s-.03.28-.09.47l-5.05,13.98Z"/>
    <path fill="#fff" d="M399.77,1108.43c0,.17,0,.31-.02.44-.01.12-.03.23-.05.33-.03.09-.06.18-.1.25-.04.07-.11.16-.22.27-.1.1-.32.26-.66.48-.33.21-.75.42-1.24.62-.5.2-1.06.38-1.7.52s-1.34.21-2.1.21c-1.31,0-2.5-.22-3.55-.66-1.06-.44-1.96-1.08-2.7-1.94-.75-.85-1.32-1.91-1.72-3.16-.4-1.25-.6-2.7-.6-4.34s.22-3.17.65-4.48c.43-1.31,1.04-2.42,1.82-3.34.78-.91,1.72-1.61,2.8-2.09,1.09-.48,2.29-.72,3.62-.72.58,0,1.15.05,1.7.16.55.11,1.06.25,1.53.41.47.17.89.36,1.25.58.36.22.62.4.76.54s.23.25.27.32c.04.07.08.16.1.26.03.1.05.22.06.35.02.14.02.3.02.48,0,.21-.01.39-.03.53-.02.15-.05.27-.09.37-.04.1-.09.17-.15.22s-.13.07-.21.07c-.15,0-.35-.1-.61-.3s-.6-.43-1.01-.67c-.41-.24-.92-.47-1.51-.67s-1.3-.3-2.13-.3c-.9,0-1.72.18-2.46.54s-1.37.89-1.89,1.59c-.52.7-.93,1.55-1.22,2.55-.29,1.01-.43,2.15-.43,3.45s.14,2.41.42,3.4.68,1.81,1.19,2.47c.52.66,1.15,1.16,1.91,1.5.75.34,1.61.51,2.56.51.81,0,1.51-.1,2.11-.3.6-.2,1.12-.42,1.54-.66.42-.24.77-.47,1.04-.66.27-.2.49-.3.64-.3.07,0,.14.02.19.05.05.03.09.09.13.18.03.09.06.21.07.37s.02.35.02.59Z"/>
    <path fill="#fff" d="M416.12,1103.72c0,1.15-.15,2.2-.45,3.16-.3.96-.75,1.79-1.35,2.49-.6.7-1.35,1.24-2.25,1.63-.9.39-1.95.59-3.13.59s-2.16-.17-3.02-.52-1.58-.84-2.15-1.5c-.57-.66-1-1.45-1.28-2.39s-.42-2-.42-3.19.15-2.2.45-3.16c.3-.96.74-1.79,1.34-2.49.6-.7,1.35-1.24,2.24-1.62.9-.38,1.94-.58,3.14-.58s2.16.17,3.02.52,1.58.84,2.15,1.5c.57.66,1,1.45,1.29,2.39.29.94.43,2,.43,3.17ZM413.45,1103.89c0-.76-.07-1.48-.21-2.16-.14-.68-.38-1.27-.7-1.78-.33-.51-.77-.91-1.32-1.21-.56-.3-1.25-.45-2.08-.45-.77,0-1.43.14-1.98.41-.55.27-1.01.65-1.36,1.15-.36.5-.62,1.08-.8,1.76-.17.68-.26,1.42-.26,2.22s.07,1.5.21,2.17c.14.68.38,1.27.71,1.77.33.51.77.91,1.33,1.2s1.25.45,2.08.45c.76,0,1.41-.13,1.97-.41.56-.27,1.01-.65,1.37-1.14.36-.49.62-1.07.79-1.75.17-.68.25-1.42.25-2.23Z"/>
    <path fill="#fff" d="M422.49,1110.9c0,.08-.02.15-.06.21-.04.06-.11.11-.2.15s-.22.07-.39.09c-.17.02-.38.03-.64.03s-.46-.01-.62-.03c-.17-.02-.3-.05-.4-.09-.1-.04-.17-.09-.2-.15-.04-.06-.05-.13-.05-.21v-20.88c0-.08.02-.16.05-.22.04-.06.1-.11.2-.16.1-.04.23-.07.4-.09.17-.02.38-.03.62-.03s.47.01.64.03c.17.02.3.05.39.09.09.04.16.09.2.16.04.06.06.14.06.22v20.88Z"/>
    <path fill="#fff" d="M430.13,1092.09c0,.6-.11,1.02-.34,1.23-.23.22-.65.33-1.27.33s-1.02-.11-1.24-.32c-.22-.21-.34-.62-.34-1.21s.11-1.02.34-1.23c.23-.22.65-.33,1.27-.33s1.02.11,1.24.32c.22.21.34.62.34,1.21ZM429.84,1110.9c0,.08-.02.15-.06.21-.04.06-.11.11-.2.15s-.22.07-.39.09c-.17.02-.38.03-.64.03s-.46-.01-.62-.03c-.17-.02-.3-.05-.4-.09-.1-.04-.17-.09-.2-.15-.04-.06-.05-.13-.05-.21v-14.06c0-.07.02-.14.05-.2.04-.06.1-.11.2-.16.1-.04.23-.07.4-.09.17-.02.38-.03.62-.03s.47.01.64.03c.17.02.3.05.39.09.09.04.16.09.2.16.04.06.06.13.06.2v14.06Z"/>
    <path fill="#fff" d="M446.71,1110.9c0,.08-.02.15-.06.21-.04.06-.11.11-.2.15s-.22.07-.39.09c-.17.02-.38.03-.62.03s-.47-.01-.64-.03c-.17-.02-.3-.05-.39-.09s-.16-.09-.2-.15c-.04-.06-.06-.13-.06-.21v-8.23c0-.8-.06-1.45-.19-1.94-.12-.49-.31-.91-.55-1.27-.24-.35-.55-.62-.93-.81-.38-.19-.82-.28-1.32-.28-.65,0-1.29.23-1.94.69-.65.46-1.32,1.13-2.03,2.02v9.83c0,.08-.02.15-.06.21-.04.06-.11.11-.2.15s-.22.07-.39.09c-.17.02-.38.03-.64.03s-.46-.01-.62-.03c-.17-.02-.3-.05-.4-.09-.1-.04-.17-.09-.2-.15-.04-.06-.05-.13-.05-.21v-14.06c0-.08.02-.15.05-.21.03-.06.09-.11.19-.16s.21-.08.36-.09c.15-.02.34-.02.58-.02s.42,0,.57.02c.15.02.27.05.35.09.08.05.14.1.18.16.04.06.05.13.05.21v1.86c.79-.88,1.58-1.53,2.37-1.95.79-.41,1.58-.62,2.38-.62.94,0,1.73.16,2.37.48.64.32,1.16.74,1.55,1.27.4.53.68,1.15.85,1.87.17.71.26,1.57.26,2.57v8.58Z"/>
    <path fill="#fff" d="M467.12,1110.83c-.04.12-.1.21-.17.28-.07.07-.17.13-.3.17-.13.04-.3.07-.5.09s-.46.02-.76.02c-.23,0-.43,0-.6,0-.17,0-.32-.02-.45-.04-.12-.02-.23-.04-.32-.07-.09-.03-.16-.06-.23-.1-.06-.04-.11-.09-.15-.15-.04-.06-.07-.13-.1-.21l-6.61-18.78c-.08-.23-.13-.41-.13-.55,0-.14.04-.25.13-.32.09-.07.24-.12.45-.14.21-.02.49-.03.84-.03.29,0,.52,0,.7.02s.3.04.4.09c.09.04.16.1.21.16.05.07.09.15.13.26l5.8,17.02h.02l5.64-16.98c.03-.11.07-.21.11-.28.04-.07.11-.13.22-.17.1-.04.25-.07.44-.09s.44-.02.75-.02.58.01.77.04c.19.03.31.08.38.15.07.07.09.18.08.32s-.07.33-.15.55l-6.59,18.78Z"/>
    <path fill="#fff" d="M479.68,1092.09c0,.6-.11,1.02-.34,1.23-.23.22-.65.33-1.27.33s-1.02-.11-1.24-.32c-.22-.21-.34-.62-.34-1.21s.11-1.02.34-1.23c.23-.22.65-.33,1.27-.33s1.02.11,1.24.32c.22.21.34.62.34,1.21ZM479.38,1110.9c0,.08-.02.15-.06.21-.04.06-.11.11-.2.15s-.22.07-.39.09c-.17.02-.38.03-.64.03s-.46-.01-.62-.03c-.17-.02-.3-.05-.4-.09-.1-.04-.17-.09-.2-.15-.04-.06-.05-.13-.05-.21v-14.06c0-.07.02-.14.05-.2.04-.06.1-.11.2-.16.1-.04.23-.07.4-.09.17-.02.38-.03.62-.03s.47.01.64.03c.17.02.3.05.39.09.09.04.16.09.2.16.04.06.06.13.06.2v14.06Z"/>
    <path fill="#fff" d="M496.15,1103.26c0,.41-.1.7-.31.87s-.44.26-.7.26h-9.26c0,.78.08,1.48.24,2.11s.42,1.16.79,1.61c.37.45.84.79,1.43,1.03.59.24,1.3.36,2.15.36.67,0,1.27-.05,1.79-.16s.98-.23,1.36-.37c.38-.13.7-.26.94-.37s.43-.16.56-.16c.07,0,.14.02.2.05.06.04.1.09.13.16.03.07.06.17.07.3.02.13.02.29.02.48,0,.14,0,.25-.02.35-.01.1-.02.19-.04.27s-.04.15-.08.21c-.04.06-.08.12-.14.18-.06.06-.23.15-.51.28-.28.13-.65.26-1.09.38-.45.12-.97.24-1.55.34-.59.1-1.22.15-1.88.15-1.16,0-2.17-.16-3.04-.48-.87-.32-1.6-.8-2.2-1.44-.59-.63-1.04-1.43-1.34-2.39-.3-.96-.45-2.07-.45-3.34s.16-2.29.47-3.26c.31-.96.76-1.78,1.35-2.45.59-.67,1.3-1.19,2.13-1.55.83-.36,1.77-.54,2.8-.54,1.1,0,2.04.18,2.82.53.78.35,1.41.83,1.91,1.43.5.6.87,1.3,1.1,2.11.23.81.35,1.67.35,2.59v.47ZM493.55,1102.5c.03-1.35-.27-2.42-.9-3.19-.63-.77-1.57-1.16-2.82-1.16-.64,0-1.2.12-1.68.36-.48.24-.89.56-1.21.95-.32.4-.58.86-.75,1.38-.18.53-.28,1.08-.3,1.65h7.67Z"/>
    <path fill="#fff" d="M513.01,1103.68c0,1.22-.13,2.32-.4,3.29-.27.97-.66,1.8-1.17,2.49s-1.15,1.21-1.9,1.58-1.61.55-2.58.55c-.45,0-.86-.04-1.24-.13-.38-.09-.75-.23-1.12-.43-.36-.2-.73-.45-1.09-.75-.36-.3-.75-.67-1.16-1.09v1.72c0,.08-.02.16-.06.22-.04.06-.11.11-.2.15s-.21.06-.35.09c-.14.02-.32.03-.54.03s-.39-.01-.53-.03c-.15-.02-.27-.05-.36-.09s-.16-.09-.19-.15-.05-.13-.05-.22v-20.88c0-.08.02-.16.05-.22.04-.06.1-.11.2-.16.1-.04.23-.07.4-.09.17-.02.38-.03.62-.03s.47.01.64.03c.17.02.3.05.39.09.09.04.16.09.2.16.04.06.06.14.06.22v8.42c.42-.43.82-.79,1.21-1.08.39-.29.77-.53,1.15-.71.38-.18.75-.31,1.12-.4.38-.08.77-.12,1.19-.12,1.02,0,1.89.2,2.62.61.72.41,1.31.95,1.77,1.63.45.68.78,1.48.99,2.4.21.92.31,1.89.31,2.91ZM510.34,1103.98c0-.72-.06-1.42-.17-2.09-.11-.68-.3-1.28-.57-1.8-.27-.52-.63-.94-1.08-1.26-.45-.32-1.01-.48-1.68-.48-.34,0-.67.05-.99.14-.33.09-.66.25-.99.47-.34.22-.68.5-1.05.84s-.75.78-1.16,1.3v5.61c.71.87,1.39,1.52,2.04,1.98.65.45,1.33.68,2.03.68.65,0,1.21-.16,1.67-.47.46-.31.84-.73,1.12-1.24s.5-1.09.63-1.73c.13-.64.2-1.29.2-1.95Z"/>
    <path fill="#fff" d="M525.1,1097.76c0,.23,0,.42-.02.58-.01.16-.03.28-.06.37-.03.09-.07.16-.12.2s-.11.07-.2.07-.19-.02-.3-.07c-.12-.05-.26-.09-.41-.14-.15-.05-.32-.09-.51-.13-.19-.04-.39-.06-.61-.06-.26,0-.52.05-.77.16-.25.1-.51.28-.79.52-.28.24-.57.56-.87.95-.3.4-.64.88-1,1.45v9.25c0,.08-.02.15-.06.21-.04.06-.11.11-.2.15s-.22.07-.39.09c-.17.02-.38.03-.64.03s-.46-.01-.62-.03c-.17-.02-.3-.05-.4-.09-.1-.04-.17-.09-.2-.15-.04-.06-.05-.13-.05-.21v-14.06c0-.08.02-.15.05-.21.03-.06.09-.11.19-.16s.21-.08.36-.09c.15-.02.34-.02.58-.02s.42,0,.57.02c.15.02.27.05.35.09.08.05.14.1.18.16.04.06.05.13.05.21v2.05c.39-.56.75-1.02,1.09-1.38.34-.35.66-.63.96-.84.3-.2.6-.34.9-.42s.6-.12.9-.12c.14,0,.29,0,.46.02s.35.04.54.09c.19.04.36.09.51.14.15.05.26.1.32.16.06.05.1.1.12.15.02.05.04.11.05.18.02.07.03.18.03.32,0,.14,0,.33,0,.57Z"/>
    <path fill="#fff" d="M540.6,1103.72c0,1.15-.15,2.2-.45,3.16-.3.96-.75,1.79-1.35,2.49-.6.7-1.35,1.24-2.25,1.63-.9.39-1.95.59-3.13.59s-2.16-.17-3.02-.52-1.58-.84-2.15-1.5c-.57-.66-1-1.45-1.28-2.39s-.42-2-.42-3.19.15-2.2.45-3.16c.3-.96.74-1.79,1.34-2.49.6-.7,1.35-1.24,2.24-1.62.9-.38,1.94-.58,3.14-.58s2.16.17,3.02.52,1.58.84,2.15,1.5c.57.66,1,1.45,1.29,2.39.29.94.43,2,.43,3.17ZM537.93,1103.89c0-.76-.07-1.48-.21-2.16-.14-.68-.38-1.27-.7-1.78-.33-.51-.77-.91-1.32-1.21-.56-.3-1.25-.45-2.08-.45-.77,0-1.43.14-1.98.41-.55.27-1.01.65-1.36,1.15-.36.5-.62,1.08-.8,1.76-.17.68-.26,1.42-.26,2.22s.07,1.5.21,2.17c.14.68.38,1.27.71,1.77.33.51.77.91,1.33,1.2s1.25.45,2.08.45c.76,0,1.41-.13,1.97-.41.56-.27,1.01-.65,1.37-1.14.36-.49.62-1.07.79-1.75.17-.68.25-1.42.25-2.23Z"/>
    <path fill="#fff" d="M554.51,1108.76c0,.18,0,.33-.02.46-.01.13-.03.24-.05.33-.03.09-.06.17-.09.23-.04.07-.12.17-.25.3-.13.13-.35.29-.66.48-.31.19-.66.37-1.05.52-.39.15-.82.27-1.27.37-.46.09-.93.14-1.42.14-1.01,0-1.91-.17-2.69-.5s-1.44-.82-1.96-1.46c-.53-.64-.93-1.43-1.2-2.36-.28-.93-.41-2.01-.41-3.23,0-1.38.17-2.58.51-3.57.34-.99.8-1.81,1.39-2.45.59-.63,1.28-1.11,2.08-1.41.8-.31,1.66-.46,2.59-.46.45,0,.88.04,1.3.12.42.08.81.19,1.16.33.35.14.67.29.95.47.28.18.48.33.6.45s.21.22.26.3c.05.07.09.16.12.26.03.1.05.21.06.34.01.12.02.28.02.47,0,.41-.05.69-.14.85-.09.16-.21.24-.34.24-.16,0-.34-.09-.54-.26s-.46-.36-.77-.57c-.31-.21-.69-.4-1.13-.57-.44-.17-.97-.26-1.57-.26-1.24,0-2.19.48-2.85,1.43-.66.95-.99,2.34-.99,4.15,0,.91.09,1.7.26,2.38.17.68.42,1.25.76,1.71.33.46.74.8,1.23,1.02.48.22,1.04.34,1.66.34s1.11-.09,1.56-.28c.45-.19.84-.39,1.16-.62.33-.22.6-.43.83-.61.22-.18.4-.27.52-.27.07,0,.14.02.19.06.05.04.1.11.13.21.04.1.06.22.08.38.02.15.02.33.02.54Z"/>
    <path fill="#fff" d="M569.48,1110.89c0,.08-.02.16-.06.22-.04.06-.11.12-.21.16-.1.04-.24.07-.41.09-.18.02-.4.03-.67.03s-.51,0-.7-.02c-.18-.02-.34-.04-.46-.08s-.23-.09-.3-.16c-.08-.07-.15-.15-.21-.24l-5.94-7.78v7.8c0,.08-.02.15-.06.21-.04.06-.11.11-.2.15s-.22.07-.39.09c-.17.02-.38.03-.64.03s-.46-.01-.62-.03c-.17-.02-.3-.05-.4-.09-.1-.04-.17-.09-.2-.15-.04-.06-.05-.13-.05-.21v-20.88c0-.08.02-.16.05-.22.04-.06.1-.11.2-.16.1-.04.23-.07.4-.09.17-.02.38-.03.62-.03s.47.01.64.03c.17.02.3.05.39.09.09.04.16.09.2.16.04.06.06.14.06.22v12.72l5.31-5.84c.08-.1.17-.19.27-.26.09-.07.21-.12.34-.17.13-.05.28-.08.46-.09.18-.02.39-.02.64-.02s.48,0,.66.02c.18.02.32.04.43.08.11.04.19.08.23.14.05.06.07.13.07.23,0,.12-.03.25-.1.38-.07.12-.18.27-.34.44l-5.09,5.09,5.72,7.42c.14.18.23.32.29.43.06.11.09.21.09.3Z"/>
    <path fill="#fff" d="M590.3,1110.92c0,.12-.04.22-.12.28-.08.06-.2.11-.34.14-.15.03-.36.05-.64.05s-.49-.02-.65-.05c-.16-.03-.28-.08-.35-.14-.07-.06-.11-.16-.11-.28v-1.41c-.61.66-1.3,1.17-2.05,1.53-.76.36-1.55.55-2.4.55-.74,0-1.41-.1-2.01-.29-.6-.19-1.11-.47-1.53-.84-.42-.36-.75-.81-.98-1.34s-.35-1.13-.35-1.81c0-.79.16-1.48.48-2.06.32-.58.79-1.07,1.39-1.45.6-.38,1.34-.67,2.22-.87.88-.19,1.86-.29,2.95-.29h1.94v-1.09c0-.54-.06-1.02-.17-1.44-.11-.42-.3-.76-.55-1.04-.26-.28-.59-.48-.99-.62s-.91-.21-1.5-.21c-.64,0-1.21.08-1.71.23-.51.15-.95.32-1.33.5-.38.18-.7.35-.95.5-.26.15-.45.23-.57.23-.08,0-.16-.02-.22-.06-.06-.04-.12-.1-.16-.19-.05-.08-.08-.19-.1-.32-.02-.13-.03-.27-.03-.43,0-.26.02-.47.05-.62.04-.15.12-.29.27-.43.14-.13.38-.29.73-.48.34-.18.74-.35,1.19-.5.45-.15.94-.28,1.47-.38.53-.1,1.07-.15,1.61-.15,1.01,0,1.87.12,2.58.34.71.23,1.28.57,1.72,1.01.44.44.75.99.95,1.65.2.66.3,1.42.3,2.3v9.48ZM587.74,1104.5h-2.2c-.71,0-1.32.06-1.84.18-.52.12-.95.3-1.3.53s-.6.52-.76.84c-.16.33-.24.71-.24,1.13,0,.73.23,1.31.7,1.74.46.43,1.11.65,1.95.65.68,0,1.3-.17,1.88-.52s1.18-.87,1.82-1.58v-2.98Z"/>
    <path fill="#fff" d="M607.15,1110.9c0,.08-.02.15-.06.21-.04.06-.11.11-.2.15s-.22.07-.39.09c-.17.02-.38.03-.62.03s-.47-.01-.64-.03c-.17-.02-.3-.05-.39-.09s-.16-.09-.2-.15c-.04-.06-.06-.13-.06-.21v-8.23c0-.8-.06-1.45-.19-1.94-.12-.49-.31-.91-.55-1.27-.24-.35-.55-.62-.93-.81-.38-.19-.82-.28-1.32-.28-.65,0-1.29.23-1.94.69-.65.46-1.32,1.13-2.03,2.02v9.83c0,.08-.02.15-.06.21-.04.06-.11.11-.2.15s-.22.07-.39.09c-.17.02-.38.03-.64.03s-.46-.01-.62-.03c-.17-.02-.3-.05-.4-.09-.1-.04-.17-.09-.2-.15-.04-.06-.05-.13-.05-.21v-14.06c0-.08.02-.15.05-.21.03-.06.09-.11.19-.16s.21-.08.36-.09c.15-.02.34-.02.58-.02s.42,0,.57.02c.15.02.27.05.35.09.08.05.14.1.18.16.04.06.05.13.05.21v1.86c.79-.88,1.58-1.53,2.37-1.95.79-.41,1.58-.62,2.38-.62.94,0,1.73.16,2.37.48.64.32,1.16.74,1.55,1.27.4.53.68,1.15.85,1.87.17.71.26,1.57.26,2.57v8.58Z"/>
    <path fill="#fff" d="M623.9,1110.9c0,.08-.02.16-.05.22-.04.06-.1.11-.19.15-.09.04-.21.06-.35.09-.15.02-.32.03-.53.03-.22,0-.4-.01-.55-.03-.15-.02-.27-.05-.36-.09s-.16-.09-.2-.15c-.04-.06-.06-.13-.06-.22v-1.86c-.74.8-1.51,1.43-2.3,1.88s-1.67.67-2.62.67c-1.03,0-1.91-.2-2.64-.6-.73-.4-1.32-.94-1.77-1.62-.45-.68-.78-1.48-.99-2.41-.21-.92-.31-1.89-.31-2.91,0-1.21.13-2.3.39-3.27.26-.97.65-1.8,1.16-2.49.51-.69,1.14-1.22,1.9-1.59.75-.37,1.63-.55,2.62-.55.82,0,1.58.18,2.26.54.68.36,1.36.89,2.02,1.59v-8.17c0-.07.02-.14.05-.21.04-.07.11-.12.21-.16.1-.04.24-.07.4-.09.16-.03.37-.04.62-.04s.47.01.64.04c.17.03.3.06.39.09.09.04.16.09.21.16.05.07.07.14.07.21v20.81ZM621.3,1101.01c-.7-.86-1.37-1.52-2.02-1.98-.65-.45-1.33-.68-2.04-.68-.66,0-1.21.16-1.67.47-.46.31-.83.72-1.12,1.23-.29.51-.5,1.09-.62,1.73-.13.65-.2,1.3-.2,1.97,0,.71.05,1.4.16,2.08.11.68.3,1.28.57,1.8.27.53.63.95,1.08,1.27.45.32,1.01.48,1.69.48.34,0,.67-.05.99-.14.32-.09.64-.25.98-.47.33-.22.68-.5,1.05-.85.36-.35.75-.78,1.16-1.29v-5.62Z"/>
    <path fill="#fff" d="M638.77,1092.09c0,.6-.11,1.02-.34,1.23-.23.22-.65.33-1.27.33s-1.02-.11-1.24-.32c-.22-.21-.34-.62-.34-1.21s.11-1.02.34-1.23c.23-.22.65-.33,1.27-.33s1.02.11,1.24.32c.22.21.34.62.34,1.21ZM638.48,1110.9c0,.08-.02.15-.06.21-.04.06-.11.11-.2.15s-.22.07-.39.09c-.17.02-.38.03-.64.03s-.46-.01-.62-.03c-.17-.02-.3-.05-.4-.09-.1-.04-.17-.09-.2-.15-.04-.06-.05-.13-.05-.21v-14.06c0-.07.02-.14.05-.2.04-.06.1-.11.2-.16.1-.04.23-.07.4-.09.17-.02.38-.03.62-.03s.47.01.64.03c.17.02.3.05.39.09.09.04.16.09.2.16.04.06.06.13.06.2v14.06Z"/>
    <path fill="#fff" d="M652.07,1107.08c0,.72-.13,1.36-.4,1.92s-.64,1.04-1.13,1.42c-.49.39-1.07.68-1.75.88-.68.2-1.42.3-2.23.3-.5,0-.98-.04-1.43-.12s-.86-.18-1.22-.3-.66-.24-.91-.38c-.25-.13-.43-.25-.55-.35-.11-.1-.2-.25-.25-.44-.05-.19-.08-.44-.08-.77,0-.2.01-.36.03-.5.02-.13.05-.24.08-.33.03-.08.08-.14.13-.18.06-.04.12-.05.2-.05.11,0,.28.07.51.21.22.14.5.29.83.46.33.17.72.32,1.16.46.45.14.96.21,1.55.21.44,0,.83-.05,1.19-.14.35-.09.66-.23.92-.41.26-.18.46-.41.6-.7s.21-.61.21-1-.1-.73-.3-1c-.2-.27-.47-.51-.8-.72-.33-.21-.71-.39-1.12-.55-.42-.16-.85-.33-1.29-.51-.44-.18-.88-.38-1.3-.6-.42-.22-.8-.5-1.13-.82-.33-.32-.6-.71-.8-1.16-.2-.45-.3-.98-.3-1.61,0-.55.11-1.08.32-1.59.21-.5.53-.95.96-1.33.43-.38.96-.68,1.6-.91.64-.23,1.39-.34,2.24-.34.38,0,.75.03,1.12.09s.71.14,1.02.23c.3.09.56.2.77.3.21.11.38.21.48.29.11.08.18.16.22.22.04.06.06.13.08.21s.03.17.05.29c.02.12.02.26.02.42,0,.18,0,.33-.02.46-.02.13-.04.24-.08.32-.04.08-.08.14-.13.18-.05.04-.11.05-.17.05-.09,0-.23-.06-.41-.17-.18-.11-.41-.24-.69-.37-.28-.13-.61-.25-.99-.37-.38-.11-.82-.17-1.3-.17-.44,0-.82.05-1.16.15-.33.1-.61.24-.82.42-.21.18-.38.4-.48.65s-.16.52-.16.81c0,.41.1.75.31,1.02.21.28.48.52.81.73.33.21.71.4,1.14.56.43.17.86.34,1.3.52.44.18.88.38,1.31.59.43.22.81.48,1.15.8.33.31.6.69.8,1.12s.3.96.3,1.56Z"/>
    <path fill="#fff" d="M671.21,1097.76c0,.23,0,.42-.02.58-.01.16-.03.28-.06.37-.03.09-.07.16-.12.2s-.11.07-.2.07-.19-.02-.3-.07c-.12-.05-.26-.09-.41-.14-.15-.05-.32-.09-.51-.13-.19-.04-.39-.06-.61-.06-.26,0-.52.05-.77.16-.25.1-.51.28-.79.52-.28.24-.57.56-.87.95-.3.4-.64.88-1,1.45v9.25c0,.08-.02.15-.06.21-.04.06-.11.11-.2.15s-.22.07-.39.09c-.17.02-.38.03-.64.03s-.46-.01-.62-.03c-.17-.02-.3-.05-.4-.09-.1-.04-.17-.09-.2-.15-.04-.06-.05-.13-.05-.21v-14.06c0-.08.02-.15.05-.21.03-.06.09-.11.19-.16s.21-.08.36-.09c.15-.02.34-.02.58-.02s.42,0,.57.02c.15.02.27.05.35.09.08.05.14.1.18.16.04.06.05.13.05.21v2.05c.39-.56.75-1.02,1.09-1.38.34-.35.66-.63.96-.84.3-.2.6-.34.9-.42s.6-.12.9-.12c.14,0,.29,0,.46.02s.35.04.54.09c.19.04.36.09.51.14.15.05.26.1.32.16.06.05.1.1.12.15.02.05.04.11.05.18.02.07.03.18.03.32,0,.14,0,.33,0,.57Z"/>
    <path fill="#fff" d="M685.73,1103.26c0,.41-.1.7-.31.87s-.44.26-.7.26h-9.26c0,.78.08,1.48.24,2.11s.42,1.16.79,1.61c.37.45.84.79,1.43,1.03.59.24,1.3.36,2.15.36.67,0,1.27-.05,1.79-.16s.98-.23,1.36-.37c.38-.13.7-.26.94-.37s.43-.16.56-.16c.07,0,.14.02.2.05.06.04.1.09.13.16.03.07.06.17.07.3.02.13.02.29.02.48,0,.14,0,.25-.02.35-.01.1-.02.19-.04.27s-.04.15-.08.21c-.04.06-.08.12-.14.18-.06.06-.23.15-.51.28-.28.13-.65.26-1.09.38-.45.12-.97.24-1.55.34-.59.1-1.22.15-1.88.15-1.16,0-2.17-.16-3.04-.48-.87-.32-1.6-.8-2.2-1.44-.59-.63-1.04-1.43-1.34-2.39-.3-.96-.45-2.07-.45-3.34s.16-2.29.47-3.26c.31-.96.76-1.78,1.35-2.45.59-.67,1.3-1.19,2.13-1.55.83-.36,1.77-.54,2.8-.54,1.1,0,2.04.18,2.82.53.78.35,1.41.83,1.91,1.43.5.6.87,1.3,1.1,2.11.23.81.35,1.67.35,2.59v.47ZM683.13,1102.5c.03-1.35-.27-2.42-.9-3.19-.63-.77-1.57-1.16-2.82-1.16-.64,0-1.2.12-1.68.36-.48.24-.89.56-1.21.95-.32.4-.58.86-.75,1.38-.18.53-.28,1.08-.3,1.65h7.67Z"/>
    <path fill="#fff" d="M692.23,1110.9c0,.08-.02.15-.06.21-.04.06-.11.11-.2.15s-.22.07-.39.09c-.17.02-.38.03-.64.03s-.46-.01-.62-.03c-.17-.02-.3-.05-.4-.09-.1-.04-.17-.09-.2-.15-.04-.06-.05-.13-.05-.21v-20.88c0-.08.02-.16.05-.22.04-.06.1-.11.2-.16.1-.04.23-.07.4-.09.17-.02.38-.03.62-.03s.47.01.64.03c.17.02.3.05.39.09.09.04.16.09.2.16.04.06.06.14.06.22v20.88Z"/>
    <path fill="#fff" d="M708.99,1103.26c0,.41-.1.7-.31.87s-.44.26-.7.26h-9.26c0,.78.08,1.48.24,2.11s.42,1.16.79,1.61c.37.45.84.79,1.43,1.03.59.24,1.3.36,2.15.36.67,0,1.27-.05,1.79-.16s.98-.23,1.36-.37c.38-.13.7-.26.94-.37s.43-.16.56-.16c.07,0,.14.02.2.05.06.04.1.09.13.16.03.07.06.17.07.3.02.13.02.29.02.48,0,.14,0,.25-.02.35-.01.1-.02.19-.04.27s-.04.15-.08.21c-.04.06-.08.12-.14.18-.06.06-.23.15-.51.28-.28.13-.65.26-1.09.38-.45.12-.97.24-1.55.34-.59.1-1.22.15-1.88.15-1.16,0-2.17-.16-3.04-.48-.87-.32-1.6-.8-2.2-1.44-.59-.63-1.04-1.43-1.34-2.39-.3-.96-.45-2.07-.45-3.34s.16-2.29.47-3.26c.31-.96.76-1.78,1.35-2.45.59-.67,1.3-1.19,2.13-1.55.83-.36,1.77-.54,2.8-.54,1.1,0,2.04.18,2.82.53.78.35,1.41.83,1.91,1.43.5.6.87,1.3,1.1,2.11.23.81.35,1.67.35,2.59v.47ZM706.4,1102.5c.03-1.35-.27-2.42-.9-3.19-.63-.77-1.57-1.16-2.82-1.16-.64,0-1.2.12-1.68.36-.48.24-.89.56-1.21.95-.32.4-.58.86-.75,1.38-.18.53-.28,1.08-.3,1.65h7.67Z"/>
    <path fill="#fff" d="M723.51,1110.92c0,.12-.04.22-.12.28-.08.06-.2.11-.34.14-.15.03-.36.05-.64.05s-.49-.02-.65-.05c-.16-.03-.28-.08-.35-.14-.07-.06-.11-.16-.11-.28v-1.41c-.61.66-1.3,1.17-2.05,1.53-.76.36-1.55.55-2.4.55-.74,0-1.41-.1-2.01-.29-.6-.19-1.11-.47-1.53-.84-.42-.36-.75-.81-.98-1.34s-.35-1.13-.35-1.81c0-.79.16-1.48.48-2.06.32-.58.79-1.07,1.39-1.45.6-.38,1.34-.67,2.22-.87.88-.19,1.86-.29,2.95-.29h1.94v-1.09c0-.54-.06-1.02-.17-1.44-.11-.42-.3-.76-.55-1.04-.26-.28-.59-.48-.99-.62s-.91-.21-1.5-.21c-.64,0-1.21.08-1.71.23-.51.15-.95.32-1.33.5-.38.18-.7.35-.95.5-.26.15-.45.23-.57.23-.08,0-.16-.02-.22-.06-.06-.04-.12-.1-.16-.19-.05-.08-.08-.19-.1-.32-.02-.13-.03-.27-.03-.43,0-.26.02-.47.05-.62.04-.15.12-.29.27-.43.14-.13.38-.29.73-.48.34-.18.74-.35,1.19-.5.45-.15.94-.28,1.47-.38.53-.1,1.07-.15,1.61-.15,1.01,0,1.87.12,2.58.34.71.23,1.28.57,1.72,1.01.44.44.75.99.95,1.65.2.66.3,1.42.3,2.3v9.48ZM720.95,1104.5h-2.2c-.71,0-1.32.06-1.84.18-.52.12-.95.3-1.3.53s-.6.52-.76.84c-.16.33-.24.71-.24,1.13,0,.73.23,1.31.7,1.74.46.43,1.11.65,1.95.65.68,0,1.3-.17,1.88-.52s1.18-.87,1.82-1.58v-2.98Z"/>
    <path fill="#fff" d="M737.07,1107.08c0,.72-.13,1.36-.4,1.92s-.64,1.04-1.13,1.42c-.49.39-1.07.68-1.75.88-.68.2-1.42.3-2.23.3-.5,0-.98-.04-1.43-.12s-.86-.18-1.22-.3-.66-.24-.91-.38c-.25-.13-.43-.25-.55-.35-.11-.1-.2-.25-.25-.44-.05-.19-.08-.44-.08-.77,0-.2.01-.36.03-.5.02-.13.05-.24.08-.33.03-.08.08-.14.13-.18.06-.04.12-.05.2-.05.11,0,.28.07.51.21.22.14.5.29.83.46.33.17.72.32,1.16.46.45.14.96.21,1.55.21.44,0,.83-.05,1.19-.14.35-.09.66-.23.92-.41.26-.18.46-.41.6-.7s.21-.61.21-1-.1-.73-.3-1c-.2-.27-.47-.51-.8-.72-.33-.21-.71-.39-1.12-.55-.42-.16-.85-.33-1.29-.51-.44-.18-.88-.38-1.3-.6-.42-.22-.8-.5-1.13-.82-.33-.32-.6-.71-.8-1.16-.2-.45-.3-.98-.3-1.61,0-.55.11-1.08.32-1.59.21-.5.53-.95.96-1.33.43-.38.96-.68,1.6-.91.64-.23,1.39-.34,2.24-.34.38,0,.75.03,1.12.09s.71.14,1.02.23c.3.09.56.2.77.3.21.11.38.21.48.29.11.08.18.16.22.22.04.06.06.13.08.21s.03.17.05.29c.02.12.02.26.02.42,0,.18,0,.33-.02.46-.02.13-.04.24-.08.32-.04.08-.08.14-.13.18-.05.04-.11.05-.17.05-.09,0-.23-.06-.41-.17-.18-.11-.41-.24-.69-.37-.28-.13-.61-.25-.99-.37-.38-.11-.82-.17-1.3-.17-.44,0-.82.05-1.16.15-.33.1-.61.24-.82.42-.21.18-.38.4-.48.65s-.16.52-.16.81c0,.41.1.75.31,1.02.21.28.48.52.81.73.33.21.71.4,1.14.56.43.17.86.34,1.3.52.44.18.88.38,1.31.59.43.22.81.48,1.15.8.33.31.6.69.8,1.12s.3.96.3,1.56Z"/>
    <path fill="#fff" d="M752.76,1103.26c0,.41-.1.7-.31.87s-.44.26-.7.26h-9.26c0,.78.08,1.48.24,2.11s.42,1.16.79,1.61c.37.45.84.79,1.43,1.03.59.24,1.3.36,2.15.36.67,0,1.27-.05,1.79-.16s.98-.23,1.36-.37c.38-.13.7-.26.94-.37s.43-.16.56-.16c.07,0,.14.02.2.05.06.04.1.09.13.16.03.07.06.17.07.3.02.13.02.29.02.48,0,.14,0,.25-.02.35-.01.1-.02.19-.04.27s-.04.15-.08.21c-.04.06-.08.12-.14.18-.06.06-.23.15-.51.28-.28.13-.65.26-1.09.38-.45.12-.97.24-1.55.34-.59.1-1.22.15-1.88.15-1.16,0-2.17-.16-3.04-.48-.87-.32-1.6-.8-2.2-1.44-.59-.63-1.04-1.43-1.34-2.39-.3-.96-.45-2.07-.45-3.34s.16-2.29.47-3.26c.31-.96.76-1.78,1.35-2.45.59-.67,1.3-1.19,2.13-1.55.83-.36,1.77-.54,2.8-.54,1.1,0,2.04.18,2.82.53.78.35,1.41.83,1.91,1.43.5.6.87,1.3,1.1,2.11.23.81.35,1.67.35,2.59v.47ZM750.16,1102.5c.03-1.35-.27-2.42-.9-3.19-.63-.77-1.57-1.16-2.82-1.16-.64,0-1.2.12-1.68.36-.48.24-.89.56-1.21.95-.32.4-.58.86-.75,1.38-.18.53-.28,1.08-.3,1.65h7.67Z"/>
    <path fill="#fff" d="M768.73,1110.9c0,.08-.02.16-.05.22-.04.06-.1.11-.19.15-.09.04-.21.06-.35.09-.15.02-.32.03-.53.03-.22,0-.4-.01-.55-.03-.15-.02-.27-.05-.36-.09s-.16-.09-.2-.15c-.04-.06-.06-.13-.06-.22v-1.86c-.74.8-1.51,1.43-2.3,1.88s-1.67.67-2.62.67c-1.03,0-1.91-.2-2.64-.6-.73-.4-1.32-.94-1.77-1.62-.45-.68-.78-1.48-.99-2.41-.21-.92-.31-1.89-.31-2.91,0-1.21.13-2.3.39-3.27.26-.97.65-1.8,1.16-2.49.51-.69,1.14-1.22,1.9-1.59.75-.37,1.63-.55,2.62-.55.82,0,1.58.18,2.26.54.68.36,1.36.89,2.02,1.59v-8.17c0-.07.02-.14.05-.21.04-.07.11-.12.21-.16.1-.04.24-.07.4-.09.16-.03.37-.04.62-.04s.47.01.64.04c.17.03.3.06.39.09.09.04.16.09.21.16.05.07.07.14.07.21v20.81ZM766.13,1101.01c-.7-.86-1.37-1.52-2.02-1.98-.65-.45-1.33-.68-2.04-.68-.66,0-1.21.16-1.67.47-.46.31-.83.72-1.12,1.23-.29.51-.5,1.09-.62,1.73-.13.65-.2,1.3-.2,1.97,0,.71.05,1.4.16,2.08.11.68.3,1.28.57,1.8.27.53.63.95,1.08,1.27.45.32,1.01.48,1.69.48.34,0,.67-.05.99-.14.32-.09.64-.25.98-.47.33-.22.68-.5,1.05-.85.36-.35.75-.78,1.16-1.29v-5.62Z"/>
    <path fill="#fff" d="M792.77,1110.9c0,.08-.02.15-.05.21-.04.06-.1.11-.2.15s-.22.07-.37.09c-.15.02-.34.03-.55.03-.24,0-.44-.01-.59-.03-.15-.02-.27-.05-.36-.09-.09-.04-.15-.09-.18-.15-.03-.06-.05-.13-.05-.21v-1.86c-.8.89-1.59,1.53-2.38,1.94s-1.57.61-2.38.61c-.94,0-1.73-.16-2.37-.47s-1.16-.74-1.55-1.27c-.4-.54-.68-1.16-.85-1.88-.17-.71-.26-1.58-.26-2.6v-8.53c0-.08.02-.15.05-.21.04-.06.11-.11.21-.16.1-.05.24-.08.41-.09.17-.02.38-.02.62-.02s.46,0,.62.02c.17.02.3.05.4.09.1.05.17.1.21.16.04.06.06.13.06.21v8.19c0,.82.06,1.48.18,1.98.12.5.3.92.55,1.27.24.35.55.62.93.81.38.19.81.29,1.31.29.65,0,1.29-.23,1.93-.69.64-.46,1.32-1.13,2.04-2.02v-9.83c0-.08.02-.15.05-.21.04-.06.11-.11.21-.16.1-.05.24-.08.4-.09.16-.02.37-.02.63-.02s.46,0,.62.02c.17.02.3.05.39.09s.16.1.21.16c.05.06.07.13.07.21v14.06Z"/>
    <path fill="#fff" d="M809.65,1110.9c0,.08-.02.15-.06.21-.04.06-.11.11-.2.15s-.22.07-.39.09c-.17.02-.38.03-.62.03s-.47-.01-.64-.03c-.17-.02-.3-.05-.39-.09s-.16-.09-.2-.15c-.04-.06-.06-.13-.06-.21v-8.23c0-.8-.06-1.45-.19-1.94-.12-.49-.31-.91-.55-1.27-.24-.35-.55-.62-.93-.81-.38-.19-.82-.28-1.32-.28-.65,0-1.29.23-1.94.69-.65.46-1.32,1.13-2.03,2.02v9.83c0,.08-.02.15-.06.21-.04.06-.11.11-.2.15s-.22.07-.39.09c-.17.02-.38.03-.64.03s-.46-.01-.62-.03c-.17-.02-.3-.05-.4-.09-.1-.04-.17-.09-.2-.15-.04-.06-.05-.13-.05-.21v-14.06c0-.08.02-.15.05-.21.03-.06.09-.11.19-.16s.21-.08.36-.09c.15-.02.34-.02.58-.02s.42,0,.57.02c.15.02.27.05.35.09.08.05.14.1.18.16.04.06.05.13.05.21v1.86c.79-.88,1.58-1.53,2.37-1.95.79-.41,1.58-.62,2.38-.62.94,0,1.73.16,2.37.48.64.32,1.16.74,1.55,1.27.4.53.68,1.15.85,1.87.17.71.26,1.57.26,2.57v8.58Z"/>
    <path fill="#fff" d="M826.4,1110.9c0,.08-.02.16-.05.22-.04.06-.1.11-.19.15-.09.04-.21.06-.35.09-.15.02-.32.03-.53.03-.22,0-.4-.01-.55-.03-.15-.02-.27-.05-.36-.09s-.16-.09-.2-.15c-.04-.06-.06-.13-.06-.22v-1.86c-.74.8-1.51,1.43-2.3,1.88s-1.67.67-2.62.67c-1.03,0-1.91-.2-2.64-.6-.73-.4-1.32-.94-1.77-1.62-.45-.68-.78-1.48-.99-2.41-.21-.92-.31-1.89-.31-2.91,0-1.21.13-2.3.39-3.27.26-.97.65-1.8,1.16-2.49.51-.69,1.14-1.22,1.9-1.59.75-.37,1.63-.55,2.62-.55.82,0,1.58.18,2.26.54.68.36,1.36.89,2.02,1.59v-8.17c0-.07.02-.14.05-.21.04-.07.11-.12.21-.16.1-.04.24-.07.4-.09.16-.03.37-.04.62-.04s.47.01.64.04c.17.03.3.06.39.09.09.04.16.09.21.16.05.07.07.14.07.21v20.81ZM823.8,1101.01c-.7-.86-1.37-1.52-2.02-1.98-.65-.45-1.33-.68-2.04-.68-.66,0-1.21.16-1.67.47-.46.31-.83.72-1.12,1.23-.29.51-.5,1.09-.62,1.73-.13.65-.2,1.3-.2,1.97,0,.71.05,1.4.16,2.08.11.68.3,1.28.57,1.8.27.53.63.95,1.08,1.27.45.32,1.01.48,1.69.48.34,0,.67-.05.99-.14.32-.09.64-.25.98-.47.33-.22.68-.5,1.05-.85.36-.35.75-.78,1.16-1.29v-5.62Z"/>
    <path fill="#fff" d="M843.16,1103.26c0,.41-.1.7-.31.87s-.44.26-.7.26h-9.26c0,.78.08,1.48.24,2.11s.42,1.16.79,1.61c.37.45.84.79,1.43,1.03.59.24,1.3.36,2.15.36.67,0,1.27-.05,1.79-.16s.98-.23,1.36-.37c.38-.13.7-.26.94-.37s.43-.16.56-.16c.07,0,.14.02.2.05.06.04.1.09.13.16.03.07.06.17.07.3.02.13.02.29.02.48,0,.14,0,.25-.02.35-.01.1-.02.19-.04.27s-.04.15-.08.21c-.04.06-.08.12-.14.18-.06.06-.23.15-.51.28-.28.13-.65.26-1.09.38-.45.12-.97.24-1.55.34-.59.1-1.22.15-1.88.15-1.16,0-2.17-.16-3.04-.48-.87-.32-1.6-.8-2.2-1.44-.59-.63-1.04-1.43-1.34-2.39-.3-.96-.45-2.07-.45-3.34s.16-2.29.47-3.26c.31-.96.76-1.78,1.35-2.45.59-.67,1.3-1.19,2.13-1.55.83-.36,1.77-.54,2.8-.54,1.1,0,2.04.18,2.82.53.78.35,1.41.83,1.91,1.43.5.6.87,1.3,1.1,2.11.23.81.35,1.67.35,2.59v.47ZM840.57,1102.5c.03-1.35-.27-2.42-.9-3.19-.63-.77-1.57-1.16-2.82-1.16-.64,0-1.2.12-1.68.36-.48.24-.89.56-1.21.95-.32.4-.58.86-.75,1.38-.18.53-.28,1.08-.3,1.65h7.67Z"/>
    <path fill="#fff" d="M855.3,1097.76c0,.23,0,.42-.02.58-.01.16-.03.28-.06.37-.03.09-.07.16-.12.2s-.11.07-.2.07-.19-.02-.3-.07c-.12-.05-.26-.09-.41-.14-.15-.05-.32-.09-.51-.13-.19-.04-.39-.06-.61-.06-.26,0-.52.05-.77.16-.25.1-.51.28-.79.52-.28.24-.57.56-.87.95-.3.4-.64.88-1,1.45v9.25c0,.08-.02.15-.06.21-.04.06-.11.11-.2.15s-.22.07-.39.09c-.17.02-.38.03-.64.03s-.46-.01-.62-.03c-.17-.02-.3-.05-.4-.09-.1-.04-.17-.09-.2-.15-.04-.06-.05-.13-.05-.21v-14.06c0-.08.02-.15.05-.21.03-.06.09-.11.19-.16s.21-.08.36-.09c.15-.02.34-.02.58-.02s.42,0,.57.02c.15.02.27.05.35.09.08.05.14.1.18.16.04.06.05.13.05.21v2.05c.39-.56.75-1.02,1.09-1.38.34-.35.66-.63.96-.84.3-.2.6-.34.9-.42s.6-.12.9-.12c.14,0,.29,0,.46.02s.35.04.54.09c.19.04.36.09.51.14.15.05.26.1.32.16.06.05.1.1.12.15.02.05.04.11.05.18.02.07.03.18.03.32,0,.14,0,.33,0,.57Z"/>
    <path fill="#fff" d="M879.27,1108.43c0,.17,0,.31-.02.44-.01.12-.03.23-.05.33-.03.09-.06.18-.1.25-.04.07-.11.16-.22.27-.1.1-.32.26-.66.48-.33.21-.75.42-1.24.62-.5.2-1.06.38-1.7.52s-1.34.21-2.1.21c-1.31,0-2.5-.22-3.55-.66-1.06-.44-1.96-1.08-2.7-1.94-.75-.85-1.32-1.91-1.72-3.16-.4-1.25-.6-2.7-.6-4.34s.22-3.17.65-4.48c.43-1.31,1.04-2.42,1.82-3.34.78-.91,1.72-1.61,2.8-2.09,1.09-.48,2.29-.72,3.62-.72.58,0,1.15.05,1.7.16.55.11,1.06.25,1.53.41.47.17.89.36,1.25.58.36.22.62.4.76.54s.23.25.27.32c.04.07.08.16.1.26.03.1.05.22.06.35.02.14.02.3.02.48,0,.21-.01.39-.03.53-.02.15-.05.27-.09.37-.04.1-.09.17-.15.22s-.13.07-.21.07c-.15,0-.35-.1-.61-.3s-.6-.43-1.01-.67c-.41-.24-.92-.47-1.51-.67s-1.3-.3-2.13-.3c-.9,0-1.72.18-2.46.54s-1.37.89-1.89,1.59c-.52.7-.93,1.55-1.22,2.55-.29,1.01-.43,2.15-.43,3.45s.14,2.41.42,3.4.68,1.81,1.19,2.47c.52.66,1.15,1.16,1.91,1.5.75.34,1.61.51,2.56.51.81,0,1.51-.1,2.11-.3.6-.2,1.12-.42,1.54-.66.42-.24.77-.47,1.04-.66.27-.2.49-.3.64-.3.07,0,.14.02.19.05.05.03.09.09.13.18.03.09.06.21.07.37s.02.35.02.59Z"/>
    <path fill="#fff" d="M896.34,1108.43c0,.17,0,.31-.02.44-.01.12-.03.23-.05.33-.03.09-.06.18-.1.25-.04.07-.11.16-.22.27-.1.1-.32.26-.66.48-.33.21-.75.42-1.24.62-.5.2-1.06.38-1.7.52s-1.34.21-2.1.21c-1.31,0-2.5-.22-3.55-.66-1.06-.44-1.96-1.08-2.7-1.94-.75-.85-1.32-1.91-1.72-3.16-.4-1.25-.6-2.7-.6-4.34s.22-3.17.65-4.48c.43-1.31,1.04-2.42,1.82-3.34.78-.91,1.72-1.61,2.8-2.09,1.09-.48,2.29-.72,3.62-.72.58,0,1.15.05,1.7.16.55.11,1.06.25,1.53.41.47.17.89.36,1.25.58.36.22.62.4.76.54s.23.25.27.32c.04.07.08.16.1.26.03.1.05.22.06.35.02.14.02.3.02.48,0,.21-.01.39-.03.53-.02.15-.05.27-.09.37-.04.1-.09.17-.15.22s-.13.07-.21.07c-.15,0-.35-.1-.61-.3s-.6-.43-1.01-.67c-.41-.24-.92-.47-1.51-.67s-1.3-.3-2.13-.3c-.9,0-1.72.18-2.46.54s-1.37.89-1.89,1.59c-.52.7-.93,1.55-1.22,2.55-.29,1.01-.43,2.15-.43,3.45s.14,2.41.42,3.4.68,1.81,1.19,2.47c.52.66,1.15,1.16,1.91,1.5.75.34,1.61.51,2.56.51.81,0,1.51-.1,2.11-.3.6-.2,1.12-.42,1.54-.66.42-.24.77-.47,1.04-.66.27-.2.49-.3.64-.3.07,0,.14.02.19.05.05.03.09.09.13.18.03.09.06.21.07.37s.02.35.02.59Z"/>
    <path fill="#fff" d="M920.46,1105.5c0,.64-.08,1.22-.24,1.76-.16.54-.39,1.02-.68,1.45-.29.43-.64.8-1.05,1.12-.41.32-.88.59-1.39.81s-1.07.38-1.66.49c-.59.11-1.26.16-2.02.16h-5.28c-.24,0-.47-.08-.68-.24-.21-.16-.32-.45-.32-.85v-18.03c0-.41.11-.69.32-.85.21-.16.44-.24.68-.24h4.59c1.21,0,2.2.12,2.97.34.77.23,1.41.56,1.93,1s.9.97,1.16,1.61c.26.64.39,1.35.39,2.16,0,.48-.06.94-.17,1.38-.11.44-.28.84-.51,1.21-.22.37-.51.7-.84.99-.34.29-.73.53-1.16.72.55.1,1.07.29,1.55.57.48.28.9.63,1.26,1.05.36.43.64.93.85,1.5.21.57.31,1.2.31,1.89ZM916.41,1096.45c0-.49-.07-.93-.2-1.33-.14-.4-.35-.73-.64-1.01-.29-.28-.67-.49-1.14-.63-.47-.15-1.09-.22-1.86-.22h-2.77v6.55h3.06c.7,0,1.26-.09,1.68-.27.43-.18.78-.43,1.06-.73.28-.31.49-.67.62-1.08.13-.41.19-.84.19-1.27ZM917.63,1105.65c0-.6-.1-1.13-.29-1.59-.19-.46-.47-.84-.84-1.16s-.83-.55-1.39-.71c-.56-.16-1.26-.24-2.1-.24h-3.21v7.12h3.9c.61,0,1.15-.07,1.61-.22.46-.15.86-.36,1.21-.65.35-.29.62-.64.82-1.07.2-.43.3-.92.3-1.48Z"/>
    <path fill="#fff" d="M930.09,1103.43v7.45c0,.08-.02.16-.06.22-.04.06-.11.11-.22.15-.1.04-.24.07-.42.09-.18.03-.39.04-.64.04s-.47-.01-.64-.04c-.17-.03-.31-.06-.42-.09-.11-.04-.18-.09-.23-.15s-.06-.13-.06-.22v-7.45l-5.72-11.41c-.11-.24-.19-.43-.21-.56-.03-.13,0-.24.08-.31.08-.07.22-.12.42-.14.2-.02.48-.03.82-.03.31,0,.56.01.76.03.19.02.35.05.46.09.11.04.2.09.26.16.06.07.11.15.16.26l2.8,5.81c.26.55.52,1.13.78,1.73.26.6.52,1.21.79,1.83h.03c.24-.59.48-1.18.74-1.77.25-.59.51-1.17.77-1.74l2.81-5.84c.03-.1.08-.19.13-.27.06-.07.14-.13.23-.16.1-.04.24-.06.41-.09.18-.02.4-.03.67-.03.38,0,.67.01.88.04.21.03.36.08.45.15.08.07.11.18.09.31-.03.14-.1.32-.21.55l-5.72,11.41Z"/>
    <path fill="#fff" d="M943.45,1103.4c0,.41-.05.69-.14.84s-.23.23-.41.23h-6.53c-.19,0-.33-.08-.42-.24-.09-.16-.14-.44-.14-.84s.05-.67.14-.83.23-.23.42-.23h6.53c.08,0,.16.02.23.05.07.03.12.09.17.18.05.09.08.2.11.34.03.14.04.3.04.5Z"/>
    <path fill="#fff" d="M958.07,1105.62c0,.95-.17,1.79-.52,2.53-.35.74-.83,1.37-1.45,1.88-.62.52-1.35.9-2.19,1.16-.84.26-1.74.39-2.71.39-.68,0-1.3-.06-1.88-.17-.58-.12-1.09-.25-1.55-.42-.45-.17-.83-.34-1.14-.52-.31-.18-.52-.33-.64-.45-.12-.12-.21-.28-.27-.48-.06-.19-.09-.45-.09-.77,0-.23.01-.42.03-.57.02-.15.05-.27.09-.37.04-.09.09-.16.16-.2.06-.04.14-.05.22-.05.15,0,.35.09.62.27.27.18.61.37,1.02.58.42.21.92.4,1.51.59.59.18,1.27.27,2.04.27.58,0,1.12-.08,1.6-.23s.9-.38,1.25-.66c.35-.29.62-.64.8-1.05.19-.42.28-.89.28-1.42,0-.57-.13-1.06-.39-1.47-.26-.41-.6-.76-1.03-1.07-.43-.31-.91-.59-1.46-.84-.55-.25-1.11-.52-1.68-.78-.57-.27-1.13-.56-1.67-.88-.54-.32-1.03-.7-1.45-1.14-.43-.44-.77-.95-1.04-1.54-.27-.59-.4-1.29-.4-2.12s.15-1.6.46-2.26c.31-.66.73-1.22,1.28-1.66.55-.45,1.2-.79,1.95-1.02.75-.23,1.57-.35,2.45-.35.45,0,.9.04,1.35.12s.88.18,1.28.31c.4.13.76.28,1.07.44.31.16.52.29.62.39.1.1.16.18.2.23.03.06.06.13.08.22.02.09.04.2.05.32.01.12.02.29.02.48s0,.35-.02.5c-.02.15-.04.27-.07.37-.03.1-.08.17-.13.22-.06.05-.12.07-.2.07-.11,0-.29-.07-.54-.22-.25-.15-.54-.31-.9-.49-.35-.18-.77-.35-1.26-.5-.48-.15-1.03-.23-1.63-.23-.56,0-1.05.08-1.47.23-.42.15-.76.35-1.03.6-.27.25-.47.55-.61.89-.14.34-.2.71-.2,1.09,0,.56.13,1.05.39,1.45.26.41.61.77,1.04,1.08.43.31.92.6,1.48.86.55.26,1.11.52,1.69.79.57.27,1.14.56,1.69.88.55.32,1.04.69,1.48,1.12.43.43.78.94,1.05,1.53.27.59.4,1.28.4,2.09Z"/>
    <path fill="#fff" d="M976.82,1110.34c.08.23.13.41.13.55,0,.14-.03.25-.12.32-.08.07-.22.12-.41.14-.19.02-.45.03-.77.03s-.58,0-.77-.02c-.19-.02-.34-.04-.44-.08-.1-.04-.17-.09-.22-.15s-.09-.14-.13-.23l-1.73-4.92h-8.41l-1.66,4.86c-.03.09-.07.17-.12.24-.05.07-.13.12-.23.17-.1.05-.24.08-.42.1-.18.02-.42.03-.71.03s-.55-.01-.74-.04c-.19-.03-.33-.08-.41-.15-.08-.07-.11-.18-.11-.32,0-.14.05-.33.13-.55l6.78-18.78c.04-.11.1-.21.16-.28.07-.07.17-.13.3-.17.13-.04.3-.07.5-.09s.46-.02.77-.02c.33,0,.61,0,.83.02s.4.04.53.09c.14.04.24.1.31.18.07.08.13.17.17.29l6.78,18.78ZM968.12,1093.76h-.02l-3.48,10.08h7.03l-3.53-10.08Z"/>
    <path fill="#fff" d="M1000.04,1105.54c0,.34-.05.62-.16.81-.1.2-.25.3-.44.3h-2.28v4.25c0,.08-.02.15-.06.21-.04.06-.12.11-.23.15s-.25.07-.42.09c-.17.02-.39.03-.66.03s-.47-.01-.64-.03c-.17-.02-.31-.05-.41-.09-.1-.04-.17-.09-.21-.15-.04-.06-.06-.13-.06-.21v-4.25h-8.27c-.12,0-.23-.02-.31-.05-.08-.03-.16-.09-.22-.17-.07-.08-.11-.2-.14-.36s-.04-.36-.04-.61c0-.2,0-.38.02-.53,0-.16.03-.3.06-.43.03-.13.07-.25.12-.38.05-.12.11-.25.19-.38l7.21-12.28c.05-.08.13-.16.23-.22s.23-.11.39-.16c.16-.04.36-.07.59-.09.23-.02.51-.02.83-.02.35,0,.66.01.92.04.26.03.47.06.63.1.16.04.28.1.37.16.08.07.13.15.13.24v12.91h2.28c.18,0,.32.09.43.27.11.18.16.46.16.84ZM994.48,1093.34h-.03l-6.5,11.09h6.53v-11.09Z"/>
    <path fill="#fff" d="M1006.68,1109.59c0,.74-.12,1.23-.37,1.48-.25.24-.69.37-1.34.37s-1.06-.12-1.3-.36c-.24-.24-.36-.72-.36-1.44s.12-1.23.37-1.48c.24-.24.69-.37,1.34-.37s1.06.12,1.3.36c.24.24.36.72.36,1.44Z"/>
    <path fill="#fff" d="M1024.15,1101.14c0,1.55-.12,2.97-.37,4.25-.25,1.28-.65,2.38-1.22,3.3-.57.92-1.31,1.64-2.23,2.14-.92.5-2.05.76-3.39.76-1.27,0-2.34-.23-3.21-.68-.87-.45-1.57-1.12-2.1-2-.53-.88-.91-1.96-1.13-3.25-.22-1.29-.34-2.76-.34-4.43,0-1.54.12-2.96.38-4.24.25-1.29.66-2.39,1.22-3.31s1.3-1.63,2.22-2.14c.92-.5,2.04-.76,3.38-.76s2.36.23,3.23.68c.87.45,1.57,1.12,2.1,2,.53.88.91,1.96,1.13,3.25.22,1.29.34,2.76.34,4.43ZM1021.4,1101.33c0-1.01-.04-1.92-.11-2.72-.07-.8-.18-1.51-.32-2.12-.14-.61-.32-1.14-.55-1.59-.22-.44-.49-.81-.8-1.09-.31-.29-.67-.49-1.07-.62-.4-.13-.85-.2-1.35-.2-.89,0-1.6.21-2.16.62-.55.42-.99.99-1.3,1.72-.32.73-.53,1.58-.65,2.56-.11.98-.17,2.03-.17,3.16,0,1.51.08,2.79.23,3.85.16,1.06.4,1.92.74,2.59.34.67.77,1.15,1.3,1.45.53.3,1.16.45,1.91.45.58,0,1.1-.09,1.54-.28.44-.19.82-.46,1.14-.8.32-.35.58-.77.79-1.26.21-.49.38-1.03.5-1.62s.21-1.24.26-1.93c.05-.69.07-1.41.07-2.16Z"/>
  </g>
  <g>
    <path fill="#fff" d="M252.04,458.47h104.94c30.8.26,53.12,9.14,66.96,26.63,13.84,17.49,18.4,41.37,13.7,71.66-1.82,13.84-5.87,27.41-12.14,40.72-6.01,13.31-14.36,25.32-25.06,36.02-13.05,13.57-27.02,22.19-41.9,25.84-14.88,3.66-30.28,5.48-46.21,5.48h-46.99l-14.88,74.4h-54.43l55.99-280.75h0M297.85,503.1l-23.49,117.47c1.57.26,3.13.39,4.7.39h5.48c25.06.26,45.95-2.22,62.65-7.44,16.7-5.48,27.93-24.54,33.67-57.17,4.7-27.41,0-43.21-14.1-47.38-13.84-4.17-31.19-6.13-52.08-5.87-3.13.26-6.13.39-9.01.39h-8.22l.39-.39"/>
    <path fill="#fff" d="M499.64,383.68h54.04l-15.27,74.79h48.55c26.63.52,46.46,6.01,59.52,16.45,13.31,10.44,17.23,30.28,11.75,59.52l-26.24,130.39h-54.82l25.06-124.52c2.61-13.05,1.82-22.32-2.35-27.8-4.17-5.48-13.18-8.22-27.02-8.22l-43.46-.39-32.11,160.93h-54.04l56.39-281.15h0"/>
    <path fill="#fff" d="M716.25,458.47h104.94c30.8.26,53.12,9.14,66.96,26.63,13.84,17.49,18.4,41.37,13.7,71.66-1.82,13.84-5.87,27.41-12.14,40.72-6.01,13.31-14.36,25.32-25.06,36.02-13.05,13.57-27.02,22.19-41.9,25.84-14.88,3.66-30.28,5.48-46.21,5.48h-46.99l-14.88,74.4h-54.43l55.99-280.75h0M762.07,503.1l-23.49,117.47c1.57.26,3.13.39,4.7.39h5.48c25.06.26,45.95-2.22,62.65-7.44,16.7-5.48,27.93-24.54,33.67-57.17,4.7-27.41,0-43.21-14.1-47.38-13.84-4.17-31.19-6.13-52.08-5.87-3.13.26-6.13.39-9.01.39h-8.22l.39-.39"/>
  </g>
  <g>
    <path fill="#ecd53f" d="M2614.38,903.21h198.43v198.43h-198.43v-198.43Z"/>
    <path fill="#000" d="M2645.14,1065.92h13.89v13.89h-13.89v-13.89Z"/>
    <path fill="#000" d="M2705.64,1080.22v-7.69h-25.5v-12.42h22.91v-7.69h-22.91v-10.12h24.62v-7.72h-33.84v45.64h34.71ZM2722.11,1080.22v-29.76l18.4,29.76h9.25v-45.64h-8.56v30.48l-18.68-30.48h-8.97v45.64h8.56ZM2780.98,1080.22l16.34-45.64h-9.77l-11.18,33.78-11.55-33.78h-9.99l16.31,45.64h9.84Z"/>
  </g>
</svg>